solid Default
  facet normal 0.000000e+00 -1.224647e-16 -1.000000e+00
    outer loop
      vertex 1.050000e+01 3.450000e+01 -1.775738e-15
      vertex 6.469023e+00 2.202255e+01 -2.476910e-16
      vertex 5.000000e+00 2.250000e+01 -3.061617e-16
    endloop
  endfacet
  facet normal -3.090959e-01 -9.510309e-01 1.164677e-16
    outer loop
      vertex 5.000000e+00 2.250000e+01 1.300000e+01
      vertex 5.000000e+00 2.250000e+01 -3.061617e-16
      vertex 6.469023e+00 2.202255e+01 -2.476910e-16
    endloop
  endfacet
  facet normal 0.000000e+00 -1.224647e-16 -1.000000e+00
    outer loop
      vertex 1.050000e+01 3.450000e+01 -1.775738e-15
      vertex 5.000000e+00 2.250000e+01 -3.061617e-16
      vertex 3.530977e+00 2.202255e+01 -2.476910e-16
    endloop
  endfacet
  facet normal 3.090959e-01 -9.510309e-01 1.164677e-16
    outer loop
      vertex 3.530977e+00 2.202255e+01 1.300000e+01
      vertex 3.530977e+00 2.202255e+01 -2.476910e-16
      vertex 5.000000e+00 2.250000e+01 -3.061617e-16
    endloop
  endfacet
  facet normal 3.090959e-01 -9.510309e-01 1.164677e-16
    outer loop
      vertex 3.530977e+00 2.202255e+01 1.300000e+01
      vertex 5.000000e+00 2.250000e+01 -3.061617e-16
      vertex 5.000000e+00 2.250000e+01 1.300000e+01
    endloop
  endfacet
  facet normal 0.000000e+00 -1.224647e-16 -1.000000e+00
    outer loop
      vertex 1.050000e+01 3.450000e+01 -1.775738e-15
      vertex 7.377758e+00 2.077182e+01 -9.452108e-17
      vertex 6.469023e+00 2.202255e+01 -2.476910e-16
    endloop
  endfacet
  facet normal -8.090084e-01 -5.877970e-01 7.198437e-17
    outer loop
      vertex 6.469023e+00 2.202255e+01 1.300000e+01
      vertex 6.469023e+00 2.202255e+01 -2.476910e-16
      vertex 7.377758e+00 2.077182e+01 -9.452108e-17
    endloop
  endfacet
  facet normal -3.090959e-01 -9.510309e-01 1.164677e-16
    outer loop
      vertex 6.469023e+00 2.202255e+01 1.300000e+01
      vertex 5.000000e+00 2.250000e+01 1.300000e+01
      vertex 6.469023e+00 2.202255e+01 -2.476910e-16
    endloop
  endfacet
  facet normal 0.000000e+00 -1.224647e-16 -1.000000e+00
    outer loop
      vertex 1.050000e+01 3.450000e+01 -1.775738e-15
      vertex 7.377758e+00 1.922818e+01 9.452108e-17
      vertex 7.377758e+00 2.077182e+01 -9.452108e-17
    endloop
  endfacet
  facet normal -1.000000e+00 -0.000000e+00 0.000000e+00
    outer loop
      vertex 7.377758e+00 2.077182e+01 1.300000e+01
      vertex 7.377758e+00 2.077182e+01 -9.452108e-17
      vertex 7.377758e+00 1.922818e+01 9.452108e-17
    endloop
  endfacet
  facet normal -8.090084e-01 -5.877970e-01 7.198437e-17
    outer loop
      vertex 6.469023e+00 2.202255e+01 1.300000e+01
      vertex 7.377758e+00 2.077182e+01 -9.452108e-17
      vertex 7.377758e+00 2.077182e+01 1.300000e+01
    endloop
  endfacet
  facet normal 0.000000e+00 -1.224647e-16 -1.000000e+00
    outer loop
      vertex 1.050000e+01 5.500000e+00 1.775738e-15
      vertex 6.469023e+00 1.797745e+01 2.476910e-16
      vertex 7.377758e+00 1.922818e+01 9.452108e-17
    endloop
  endfacet
  facet normal -8.090084e-01 5.877970e-01 -7.198437e-17
    outer loop
      vertex 7.377758e+00 1.922818e+01 1.300000e+01
      vertex 7.377758e+00 1.922818e+01 9.452108e-17
      vertex 6.469023e+00 1.797745e+01 2.476910e-16
    endloop
  endfacet
  facet normal 0.000000e+00 -1.224647e-16 -1.000000e+00
    outer loop
      vertex 1.050000e+01 3.450000e+01 -1.775738e-15
      vertex 1.050000e+01 5.500000e+00 1.775738e-15
      vertex 7.377758e+00 1.922818e+01 9.452108e-17
    endloop
  endfacet
  facet normal -1.000000e+00 -0.000000e+00 0.000000e+00
    outer loop
      vertex 7.377758e+00 2.077182e+01 1.300000e+01
      vertex 7.377758e+00 1.922818e+01 9.452108e-17
      vertex 7.377758e+00 1.922818e+01 1.300000e+01
    endloop
  endfacet
  facet normal 0.000000e+00 -1.224647e-16 -1.000000e+00
    outer loop
      vertex -2.000000e+01 5.500000e+00 1.775738e-15
      vertex 5.000000e+00 1.750000e+01 3.061617e-16
      vertex 6.469023e+00 1.797745e+01 2.476910e-16
    endloop
  endfacet
  facet normal -3.090959e-01 9.510309e-01 -1.164677e-16
    outer loop
      vertex 6.469023e+00 1.797745e+01 1.300000e+01
      vertex 6.469023e+00 1.797745e+01 2.476910e-16
      vertex 5.000000e+00 1.750000e+01 3.061617e-16
    endloop
  endfacet
  facet normal 0.000000e+00 -1.224647e-16 -1.000000e+00
    outer loop
      vertex 1.050000e+01 5.500000e+00 1.775738e-15
      vertex -2.000000e+01 5.500000e+00 1.775738e-15
      vertex 6.469023e+00 1.797745e+01 2.476910e-16
    endloop
  endfacet
  facet normal -8.090084e-01 5.877970e-01 -7.198437e-17
    outer loop
      vertex 7.377758e+00 1.922818e+01 1.300000e+01
      vertex 6.469023e+00 1.797745e+01 2.476910e-16
      vertex 6.469023e+00 1.797745e+01 1.300000e+01
    endloop
  endfacet
  facet normal 0.000000e+00 -1.224647e-16 -1.000000e+00
    outer loop
      vertex -2.000000e+01 5.500000e+00 1.775738e-15
      vertex 3.530977e+00 1.797745e+01 2.476910e-16
      vertex 5.000000e+00 1.750000e+01 3.061617e-16
    endloop
  endfacet
  facet normal 3.090959e-01 9.510309e-01 -1.164677e-16
    outer loop
      vertex 5.000000e+00 1.750000e+01 1.300000e+01
      vertex 5.000000e+00 1.750000e+01 3.061617e-16
      vertex 3.530977e+00 1.797745e+01 2.476910e-16
    endloop
  endfacet
  facet normal -3.090959e-01 9.510309e-01 -1.164677e-16
    outer loop
      vertex 6.469023e+00 1.797745e+01 1.300000e+01
      vertex 5.000000e+00 1.750000e+01 3.061617e-16
      vertex 5.000000e+00 1.750000e+01 1.300000e+01
    endloop
  endfacet
  facet normal 0.000000e+00 -1.224647e-16 -1.000000e+00
    outer loop
      vertex -2.000000e+01 5.500000e+00 1.775738e-15
      vertex 2.622242e+00 1.922818e+01 9.452108e-17
      vertex 3.530977e+00 1.797745e+01 2.476910e-16
    endloop
  endfacet
  facet normal 8.090084e-01 5.877970e-01 -7.198437e-17
    outer loop
      vertex 3.530977e+00 1.797745e+01 1.300000e+01
      vertex 3.530977e+00 1.797745e+01 2.476910e-16
      vertex 2.622242e+00 1.922818e+01 9.452108e-17
    endloop
  endfacet
  facet normal 3.090959e-01 9.510309e-01 -1.164677e-16
    outer loop
      vertex 5.000000e+00 1.750000e+01 1.300000e+01
      vertex 3.530977e+00 1.797745e+01 2.476910e-16
      vertex 3.530977e+00 1.797745e+01 1.300000e+01
    endloop
  endfacet
  facet normal 0.000000e+00 -1.224647e-16 -1.000000e+00
    outer loop
      vertex -2.000000e+01 5.500000e+00 1.775738e-15
      vertex 2.622242e+00 2.077182e+01 -9.452108e-17
      vertex 2.622242e+00 1.922818e+01 9.452108e-17
    endloop
  endfacet
  facet normal 1.000000e+00 0.000000e+00 0.000000e+00
    outer loop
      vertex 2.622242e+00 1.922818e+01 1.300000e+01
      vertex 2.622242e+00 1.922818e+01 9.452108e-17
      vertex 2.622242e+00 2.077182e+01 -9.452108e-17
    endloop
  endfacet
  facet normal 8.090084e-01 5.877970e-01 -7.198437e-17
    outer loop
      vertex 3.530977e+00 1.797745e+01 1.300000e+01
      vertex 2.622242e+00 1.922818e+01 9.452108e-17
      vertex 2.622242e+00 1.922818e+01 1.300000e+01
    endloop
  endfacet
  facet normal 0.000000e+00 -1.224647e-16 -1.000000e+00
    outer loop
      vertex 1.050000e+01 3.450000e+01 -1.775738e-15
      vertex 3.530977e+00 2.202255e+01 -2.476910e-16
      vertex 2.622242e+00 2.077182e+01 -9.452108e-17
    endloop
  endfacet
  facet normal 8.090084e-01 -5.877970e-01 7.198437e-17
    outer loop
      vertex 2.622242e+00 2.077182e+01 1.300000e+01
      vertex 2.622242e+00 2.077182e+01 -9.452108e-17
      vertex 3.530977e+00 2.202255e+01 -2.476910e-16
    endloop
  endfacet
  facet normal 0.000000e+00 -1.224647e-16 -1.000000e+00
    outer loop
      vertex -1.610275e+01 1.775065e+01 2.754658e-16
      vertex -1.550000e+01 2.000000e+01 -3.374460e-32
      vertex 2.622242e+00 2.077182e+01 -9.452108e-17
    endloop
  endfacet
  facet normal 0.000000e+00 -1.224647e-16 -1.000000e+00
    outer loop
      vertex 1.050000e+01 3.450000e+01 -1.775738e-15
      vertex 2.622242e+00 2.077182e+01 -9.452108e-17
      vertex -1.550000e+01 2.000000e+01 -3.374460e-32
    endloop
  endfacet
  facet normal 0.000000e+00 -1.224647e-16 -1.000000e+00
    outer loop
      vertex -2.000000e+01 5.500000e+00 1.775738e-15
      vertex -1.610275e+01 1.775065e+01 2.754658e-16
      vertex 2.622242e+00 2.077182e+01 -9.452108e-17
    endloop
  endfacet
  facet normal 1.000000e+00 0.000000e+00 0.000000e+00
    outer loop
      vertex 2.622242e+00 1.922818e+01 1.300000e+01
      vertex 2.622242e+00 2.077182e+01 -9.452108e-17
      vertex 2.622242e+00 2.077182e+01 1.300000e+01
    endloop
  endfacet
  facet normal 8.090084e-01 -5.877970e-01 7.198437e-17
    outer loop
      vertex 2.622242e+00 2.077182e+01 1.300000e+01
      vertex 3.530977e+00 2.202255e+01 -2.476910e-16
      vertex 3.530977e+00 2.202255e+01 1.300000e+01
    endloop
  endfacet
  facet normal 0.000000e+00 -1.224647e-16 -1.000000e+00
    outer loop
      vertex 1.050000e+01 3.450000e+01 -1.775738e-15
      vertex -1.775065e+01 2.389725e+01 -4.772751e-16
      vertex -2.000000e+01 2.450000e+01 -5.510911e-16
    endloop
  endfacet
  facet normal -2.588356e-01 -9.659214e-01 1.182913e-16
    outer loop
      vertex -2.000000e+01 2.450000e+01 2.000000e+00
      vertex -2.000000e+01 2.450000e+01 -5.510911e-16
      vertex -1.775065e+01 2.389725e+01 -4.772751e-16
    endloop
  endfacet
  facet normal 0.000000e+00 -1.224647e-16 -1.000000e+00
    outer loop
      vertex -2.000000e+01 3.450000e+01 -1.775738e-15
      vertex -2.000000e+01 2.450000e+01 -5.510911e-16
      vertex -2.224935e+01 2.389725e+01 -4.772751e-16
    endloop
  endfacet
  facet normal 2.588357e-01 -9.659215e-01 -9.418362e-05
    outer loop
      vertex -2.225030e+01 2.389680e+01 2.000000e+00
      vertex -2.224935e+01 2.389725e+01 -4.772751e-16
      vertex -2.000000e+01 2.450000e+01 -5.510911e-16
    endloop
  endfacet
  facet normal 0.000000e+00 -1.224647e-16 -1.000000e+00
    outer loop
      vertex -2.000000e+01 3.450000e+01 -1.775738e-15
      vertex 1.050000e+01 3.450000e+01 -1.775738e-15
      vertex -2.000000e+01 2.450000e+01 -5.510911e-16
    endloop
  endfacet
  facet normal 2.589138e-01 -9.659004e-01 1.182887e-16
    outer loop
      vertex -2.000000e+01 2.450000e+01 2.000000e+00
      vertex -2.225030e+01 2.389680e+01 2.000000e+00
      vertex -2.000000e+01 2.450000e+01 -5.510911e-16
    endloop
  endfacet
  facet normal 0.000000e+00 -1.224647e-16 -1.000000e+00
    outer loop
      vertex 1.050000e+01 3.450000e+01 -1.775738e-15
      vertex -1.610275e+01 2.224935e+01 -2.754658e-16
      vertex -1.775065e+01 2.389725e+01 -4.772751e-16
    endloop
  endfacet
  facet normal -7.071068e-01 -7.071068e-01 1.781543e-04
    outer loop
      vertex -1.774970e+01 2.389680e+01 2.000000e+00
      vertex -1.775065e+01 2.389725e+01 -4.772751e-16
      vertex -1.610275e+01 2.224935e+01 -2.754658e-16
    endloop
  endfacet
  facet normal -2.589138e-01 -9.659004e-01 -9.414160e-05
    outer loop
      vertex -1.774970e+01 2.389680e+01 2.000000e+00
      vertex -2.000000e+01 2.450000e+01 2.000000e+00
      vertex -1.775065e+01 2.389725e+01 -4.772751e-16
    endloop
  endfacet
  facet normal 0.000000e+00 -1.224647e-16 -1.000000e+00
    outer loop
      vertex 1.050000e+01 3.450000e+01 -1.775738e-15
      vertex -1.550000e+01 2.000000e+01 -3.374460e-32
      vertex -1.610275e+01 2.224935e+01 -2.754658e-16
    endloop
  endfacet
  facet normal -9.659215e-01 -2.588357e-01 -9.418362e-05
    outer loop
      vertex -1.610320e+01 2.225030e+01 2.000000e+00
      vertex -1.610275e+01 2.224935e+01 -2.754658e-16
      vertex -1.550000e+01 2.000000e+01 -3.374460e-32
    endloop
  endfacet
  facet normal -7.071068e-01 -7.071068e-01 1.781543e-04
    outer loop
      vertex -1.610320e+01 2.225030e+01 2.000000e+00
      vertex -1.774970e+01 2.389680e+01 2.000000e+00
      vertex -1.610275e+01 2.224935e+01 -2.754658e-16
    endloop
  endfacet
  facet normal -9.659214e-01 2.588356e-01 -3.169822e-17
    outer loop
      vertex -1.550000e+01 2.000000e+01 2.000000e+00
      vertex -1.550000e+01 2.000000e+01 -3.374460e-32
      vertex -1.610275e+01 1.775065e+01 2.754658e-16
    endloop
  endfacet
  facet normal -9.659004e-01 -2.589138e-01 3.170779e-17
    outer loop
      vertex -1.550000e+01 2.000000e+01 2.000000e+00
      vertex -1.610320e+01 2.225030e+01 2.000000e+00
      vertex -1.550000e+01 2.000000e+01 -3.374460e-32
    endloop
  endfacet
  facet normal 0.000000e+00 -1.224647e-16 -1.000000e+00
    outer loop
      vertex -2.000000e+01 5.500000e+00 1.775738e-15
      vertex -1.775065e+01 1.610275e+01 4.772751e-16
      vertex -1.610275e+01 1.775065e+01 2.754658e-16
    endloop
  endfacet
  facet normal -7.071068e-01 7.071068e-01 1.781543e-04
    outer loop
      vertex -1.610320e+01 1.774970e+01 2.000000e+00
      vertex -1.610275e+01 1.775065e+01 2.754658e-16
      vertex -1.775065e+01 1.610275e+01 4.772751e-16
    endloop
  endfacet
  facet normal -9.659004e-01 2.589138e-01 -9.414160e-05
    outer loop
      vertex -1.610320e+01 1.774970e+01 2.000000e+00
      vertex -1.550000e+01 2.000000e+01 2.000000e+00
      vertex -1.610275e+01 1.775065e+01 2.754658e-16
    endloop
  endfacet
  facet normal 0.000000e+00 -1.224647e-16 -1.000000e+00
    outer loop
      vertex -2.000000e+01 5.500000e+00 1.775738e-15
      vertex -2.000000e+01 1.550000e+01 5.510911e-16
      vertex -1.775065e+01 1.610275e+01 4.772751e-16
    endloop
  endfacet
  facet normal -2.588357e-01 9.659215e-01 -9.418362e-05
    outer loop
      vertex -1.774970e+01 1.610320e+01 2.000000e+00
      vertex -1.775065e+01 1.610275e+01 4.772751e-16
      vertex -2.000000e+01 1.550000e+01 5.510911e-16
    endloop
  endfacet
  facet normal -7.071068e-01 7.071068e-01 1.781543e-04
    outer loop
      vertex -1.774970e+01 1.610320e+01 2.000000e+00
      vertex -1.610320e+01 1.774970e+01 2.000000e+00
      vertex -1.775065e+01 1.610275e+01 4.772751e-16
    endloop
  endfacet
  facet normal 0.000000e+00 -1.224647e-16 -1.000000e+00
    outer loop
      vertex -2.448148e+01 6.209955e+00 1.688793e-15
      vertex -2.224935e+01 1.610275e+01 4.772751e-16
      vertex -2.000000e+01 1.550000e+01 5.510911e-16
    endloop
  endfacet
  facet normal 2.588356e-01 9.659214e-01 -1.182913e-16
    outer loop
      vertex -2.000000e+01 1.550000e+01 2.000000e+00
      vertex -2.000000e+01 1.550000e+01 5.510911e-16
      vertex -2.224935e+01 1.610275e+01 4.772751e-16
    endloop
  endfacet
  facet normal 0.000000e+00 -1.224647e-16 -1.000000e+00
    outer loop
      vertex -2.448148e+01 6.209955e+00 1.688793e-15
      vertex -2.000000e+01 1.550000e+01 5.510911e-16
      vertex -2.000000e+01 5.500000e+00 1.775738e-15
    endloop
  endfacet
  facet normal -2.589138e-01 9.659004e-01 -1.182887e-16
    outer loop
      vertex -1.774970e+01 1.610320e+01 2.000000e+00
      vertex -2.000000e+01 1.550000e+01 5.510911e-16
      vertex -2.000000e+01 1.550000e+01 2.000000e+00
    endloop
  endfacet
  facet normal 0.000000e+00 -1.224647e-16 -1.000000e+00
    outer loop
      vertex -2.448148e+01 6.209955e+00 1.688793e-15
      vertex -2.389725e+01 1.775065e+01 2.754658e-16
      vertex -2.224935e+01 1.610275e+01 4.772751e-16
    endloop
  endfacet
  facet normal 7.071068e-01 7.071068e-01 1.781543e-04
    outer loop
      vertex -2.225030e+01 1.610320e+01 2.000000e+00
      vertex -2.224935e+01 1.610275e+01 4.772751e-16
      vertex -2.389725e+01 1.775065e+01 2.754658e-16
    endloop
  endfacet
  facet normal 2.589138e-01 9.659004e-01 -9.414160e-05
    outer loop
      vertex -2.225030e+01 1.610320e+01 2.000000e+00
      vertex -2.000000e+01 1.550000e+01 2.000000e+00
      vertex -2.224935e+01 1.610275e+01 4.772751e-16
    endloop
  endfacet
  facet normal 0.000000e+00 -1.224647e-16 -1.000000e+00
    outer loop
      vertex -2.448148e+01 6.209955e+00 1.688793e-15
      vertex -2.450000e+01 2.000000e+01 1.012338e-31
      vertex -2.389725e+01 1.775065e+01 2.754658e-16
    endloop
  endfacet
  facet normal 9.659215e-01 2.588357e-01 -9.418362e-05
    outer loop
      vertex -2.389680e+01 1.774970e+01 2.000000e+00
      vertex -2.389725e+01 1.775065e+01 2.754658e-16
      vertex -2.450000e+01 2.000000e+01 1.012338e-31
    endloop
  endfacet
  facet normal 7.071068e-01 7.071068e-01 1.781543e-04
    outer loop
      vertex -2.389680e+01 1.774970e+01 2.000000e+00
      vertex -2.225030e+01 1.610320e+01 2.000000e+00
      vertex -2.389725e+01 1.775065e+01 2.754658e-16
    endloop
  endfacet
  facet normal 0.000000e+00 -1.224647e-16 -1.000000e+00
    outer loop
      vertex -2.448148e+01 3.379004e+01 -1.688793e-15
      vertex -2.389725e+01 2.224935e+01 -2.754658e-16
      vertex -2.450000e+01 2.000000e+01 1.012338e-31
    endloop
  endfacet
  facet normal 9.659214e-01 -2.588356e-01 3.169822e-17
    outer loop
      vertex -2.450000e+01 2.000000e+01 2.000000e+00
      vertex -2.450000e+01 2.000000e+01 1.012338e-31
      vertex -2.389725e+01 2.224935e+01 -2.754658e-16
    endloop
  endfacet
  facet normal 0.000000e+00 -1.224647e-16 -1.000000e+00
    outer loop
      vertex -2.852367e+01 8.269955e+00 1.436516e-15
      vertex -2.448148e+01 3.379004e+01 -1.688793e-15
      vertex -2.450000e+01 2.000000e+01 1.012338e-31
    endloop
  endfacet
  facet normal 0.000000e+00 -1.224647e-16 -1.000000e+00
    outer loop
      vertex -2.448148e+01 6.209955e+00 1.688793e-15
      vertex -2.852367e+01 8.269955e+00 1.436516e-15
      vertex -2.450000e+01 2.000000e+01 1.012338e-31
    endloop
  endfacet
  facet normal 9.659004e-01 2.589138e-01 -3.170779e-17
    outer loop
      vertex -2.450000e+01 2.000000e+01 2.000000e+00
      vertex -2.389680e+01 1.774970e+01 2.000000e+00
      vertex -2.450000e+01 2.000000e+01 1.012338e-31
    endloop
  endfacet
  facet normal 0.000000e+00 -1.224647e-16 -1.000000e+00
    outer loop
      vertex -2.000000e+01 3.450000e+01 -1.775738e-15
      vertex -2.224935e+01 2.389725e+01 -4.772751e-16
      vertex -2.389725e+01 2.224935e+01 -2.754658e-16
    endloop
  endfacet
  facet normal 7.071068e-01 -7.071068e-01 1.781543e-04
    outer loop
      vertex -2.389680e+01 2.225030e+01 2.000000e+00
      vertex -2.389725e+01 2.224935e+01 -2.754658e-16
      vertex -2.224935e+01 2.389725e+01 -4.772751e-16
    endloop
  endfacet
  facet normal 0.000000e+00 -1.224647e-16 -1.000000e+00
    outer loop
      vertex -2.448148e+01 3.379004e+01 -1.688793e-15
      vertex -2.000000e+01 3.450000e+01 -1.775738e-15
      vertex -2.389725e+01 2.224935e+01 -2.754658e-16
    endloop
  endfacet
  facet normal 9.659004e-01 -2.589138e-01 -9.414160e-05
    outer loop
      vertex -2.389680e+01 2.225030e+01 2.000000e+00
      vertex -2.450000e+01 2.000000e+01 2.000000e+00
      vertex -2.389725e+01 2.224935e+01 -2.754658e-16
    endloop
  endfacet
  facet normal 7.071068e-01 -7.071068e-01 1.781543e-04
    outer loop
      vertex -2.225030e+01 2.389680e+01 2.000000e+00
      vertex -2.389680e+01 2.225030e+01 2.000000e+00
      vertex -2.224935e+01 2.389725e+01 -4.772751e-16
    endloop
  endfacet
  facet normal 2.329648e-16 -1.000000e+00 1.224647e-16
    outer loop
      vertex -2.000000e+01 5.500000e+00 1.300000e+01
      vertex -2.000000e+01 5.500000e+00 1.775738e-15
      vertex 1.050000e+01 5.500000e+00 1.775738e-15
    endloop
  endfacet
  facet normal -1.564683e-01 -9.876830e-01 1.209563e-16
    outer loop
      vertex -2.448148e+01 6.209955e+00 1.300000e+01
      vertex -2.448148e+01 6.209955e+00 1.688793e-15
      vertex -2.000000e+01 5.500000e+00 1.775738e-15
    endloop
  endfacet
  facet normal -1.564683e-01 -9.876830e-01 1.209563e-16
    outer loop
      vertex -2.448148e+01 6.209955e+00 1.300000e+01
      vertex -2.000000e+01 5.500000e+00 1.775738e-15
      vertex -2.000000e+01 5.500000e+00 1.300000e+01
    endloop
  endfacet
  facet normal 1.000000e+00 0.000000e+00 0.000000e+00
    outer loop
      vertex 1.050000e+01 8.036906e+00 1.148599e+01
      vertex 1.050000e+01 5.500000e+00 1.775738e-15
      vertex 1.050000e+01 3.450000e+01 -1.775738e-15
    endloop
  endfacet
  facet normal 2.599546e-16 -1.000000e+00 1.857870e-16
    outer loop
      vertex -2.000000e+01 5.500000e+00 1.300000e+01
      vertex 1.050000e+01 5.500000e+00 1.775738e-15
      vertex 5.000000e-01 5.500000e+00 1.300000e+01
    endloop
  endfacet
  facet normal 9.107353e-16 -1.000000e+00 6.863875e-16
    outer loop
      vertex 5.000000e-01 5.500000e+00 1.615000e+01
      vertex 5.000000e-01 5.500000e+00 1.300000e+01
      vertex 1.050000e+01 5.500000e+00 1.775738e-15
    endloop
  endfacet
  facet normal 1.000000e+00 0.000000e+00 0.000000e+00
    outer loop
      vertex 1.050000e+01 7.286469e+00 1.203123e+01
      vertex 1.050000e+01 5.500000e+00 1.615000e+01
      vertex 1.050000e+01 5.500000e+00 1.775738e-15
    endloop
  endfacet
  facet normal 0.000000e+00 -1.000000e+00 1.224647e-16
    outer loop
      vertex 5.000000e-01 5.500000e+00 1.615000e+01
      vertex 1.050000e+01 5.500000e+00 1.775738e-15
      vertex 1.050000e+01 5.500000e+00 1.615000e+01
    endloop
  endfacet
  facet normal 1.000000e+00 0.000000e+00 0.000000e+00
    outer loop
      vertex 1.050000e+01 8.036906e+00 1.148599e+01
      vertex 1.050000e+01 7.286469e+00 1.203123e+01
      vertex 1.050000e+01 5.500000e+00 1.775738e-15
    endloop
  endfacet
  facet normal 2.329648e-16 1.000000e+00 -1.224647e-16
    outer loop
      vertex 1.050000e+01 3.450000e+01 1.300000e+01
      vertex 1.050000e+01 3.450000e+01 -1.775738e-15
      vertex -2.000000e+01 3.450000e+01 -1.775738e-15
    endloop
  endfacet
  facet normal 1.000000e+00 0.000000e+00 0.000000e+00
    outer loop
      vertex 1.050000e+01 3.271353e+01 3.881414e+00
      vertex 1.050000e+01 3.450000e+01 -1.775738e-15
      vertex 1.050000e+01 3.450000e+01 1.300000e+01
    endloop
  endfacet
  facet normal 1.000000e+00 0.000000e+00 0.000000e+00
    outer loop
      vertex 1.050000e+01 3.196309e+01 1.573346e+00
      vertex 1.050000e+01 3.103691e+01 1.573346e+00
      vertex 1.050000e+01 3.450000e+01 -1.775738e-15
    endloop
  endfacet
  facet normal 1.000000e+00 0.000000e+00 0.000000e+00
    outer loop
      vertex 1.050000e+01 8.963094e+00 1.148599e+01
      vertex 1.050000e+01 3.450000e+01 -1.775738e-15
      vertex 1.050000e+01 3.103691e+01 1.573346e+00
    endloop
  endfacet
  facet normal 1.000000e+00 0.000000e+00 0.000000e+00
    outer loop
      vertex 1.050000e+01 3.271353e+01 2.118586e+00
      vertex 1.050000e+01 3.196309e+01 1.573346e+00
      vertex 1.050000e+01 3.450000e+01 -1.775738e-15
    endloop
  endfacet
  facet normal 1.000000e+00 0.000000e+00 0.000000e+00
    outer loop
      vertex 1.050000e+01 3.300000e+01 3.000000e+00
      vertex 1.050000e+01 3.271353e+01 2.118586e+00
      vertex 1.050000e+01 3.450000e+01 -1.775738e-15
    endloop
  endfacet
  facet normal 1.000000e+00 0.000000e+00 0.000000e+00
    outer loop
      vertex 1.050000e+01 3.271353e+01 3.881414e+00
      vertex 1.050000e+01 3.300000e+01 3.000000e+00
      vertex 1.050000e+01 3.450000e+01 -1.775738e-15
    endloop
  endfacet
  facet normal 1.000000e+00 0.000000e+00 0.000000e+00
    outer loop
      vertex 1.050000e+01 8.963094e+00 1.148599e+01
      vertex 1.050000e+01 8.036906e+00 1.148599e+01
      vertex 1.050000e+01 3.450000e+01 -1.775738e-15
    endloop
  endfacet
  facet normal -1.564683e-01 9.876830e-01 -1.209563e-16
    outer loop
      vertex -2.000000e+01 3.450000e+01 1.300000e+01
      vertex -2.000000e+01 3.450000e+01 -1.775738e-15
      vertex -2.448148e+01 3.379004e+01 -1.688793e-15
    endloop
  endfacet
  facet normal 2.329648e-16 1.000000e+00 -1.224647e-16
    outer loop
      vertex 1.050000e+01 3.450000e+01 1.300000e+01
      vertex -2.000000e+01 3.450000e+01 -1.775738e-15
      vertex -2.000000e+01 3.450000e+01 1.300000e+01
    endloop
  endfacet
  facet normal 0.000000e+00 -1.224647e-16 -1.000000e+00
    outer loop
      vertex -2.852367e+01 8.269955e+00 1.436516e-15
      vertex -2.852367e+01 3.173005e+01 -1.436516e-15
      vertex -2.448148e+01 3.379004e+01 -1.688793e-15
    endloop
  endfacet
  facet normal -4.540607e-01 8.909708e-01 -1.091124e-16
    outer loop
      vertex -2.448148e+01 3.379004e+01 1.300000e+01
      vertex -2.448148e+01 3.379004e+01 -1.688793e-15
      vertex -2.852367e+01 3.173005e+01 -1.436516e-15
    endloop
  endfacet
  facet normal -1.564683e-01 9.876830e-01 -1.209563e-16
    outer loop
      vertex -2.000000e+01 3.450000e+01 1.300000e+01
      vertex -2.448148e+01 3.379004e+01 -1.688793e-15
      vertex -2.448148e+01 3.379004e+01 1.300000e+01
    endloop
  endfacet
  facet normal 0.000000e+00 -1.224647e-16 -1.000000e+00
    outer loop
      vertex -3.173114e+01 1.147796e+01 1.043649e-15
      vertex -3.173114e+01 2.852204e+01 -1.043649e-15
      vertex -2.852367e+01 3.173005e+01 -1.436516e-15
    endloop
  endfacet
  facet normal -7.071664e-01 7.070472e-01 -8.658831e-17
    outer loop
      vertex -2.852367e+01 3.173005e+01 1.300000e+01
      vertex -2.852367e+01 3.173005e+01 -1.436516e-15
      vertex -3.173114e+01 2.852204e+01 -1.043649e-15
    endloop
  endfacet
  facet normal 0.000000e+00 -1.224647e-16 -1.000000e+00
    outer loop
      vertex -2.852367e+01 8.269955e+00 1.436516e-15
      vertex -3.173114e+01 1.147796e+01 1.043649e-15
      vertex -2.852367e+01 3.173005e+01 -1.436516e-15
    endloop
  endfacet
  facet normal -4.540607e-01 8.909708e-01 -1.091124e-16
    outer loop
      vertex -2.448148e+01 3.379004e+01 1.300000e+01
      vertex -2.852367e+01 3.173005e+01 -1.436516e-15
      vertex -2.852367e+01 3.173005e+01 1.300000e+01
    endloop
  endfacet
  facet normal 0.000000e+00 -1.224647e-16 -1.000000e+00
    outer loop
      vertex -3.379026e+01 1.551983e+01 5.486631e-16
      vertex -3.379026e+01 2.448017e+01 -5.486631e-16
      vertex -3.173114e+01 2.852204e+01 -1.043649e-15
    endloop
  endfacet
  facet normal -8.910345e-01 4.539355e-01 -5.559106e-17
    outer loop
      vertex -3.173114e+01 2.852204e+01 1.300000e+01
      vertex -3.173114e+01 2.852204e+01 -1.043649e-15
      vertex -3.379026e+01 2.448017e+01 -5.486631e-16
    endloop
  endfacet
  facet normal 0.000000e+00 -1.224647e-16 -1.000000e+00
    outer loop
      vertex -3.173114e+01 1.147796e+01 1.043649e-15
      vertex -3.379026e+01 1.551983e+01 5.486631e-16
      vertex -3.173114e+01 2.852204e+01 -1.043649e-15
    endloop
  endfacet
  facet normal -7.071664e-01 7.070472e-01 -8.658831e-17
    outer loop
      vertex -2.852367e+01 3.173005e+01 1.300000e+01
      vertex -3.173114e+01 2.852204e+01 -1.043649e-15
      vertex -3.173114e+01 2.852204e+01 1.300000e+01
    endloop
  endfacet
  facet normal 0.000000e+00 -1.224647e-16 -1.000000e+00
    outer loop
      vertex -3.379026e+01 1.551983e+01 5.486631e-16
      vertex -3.449975e+01 2.000000e+01 1.121696e-30
      vertex -3.379026e+01 2.448017e+01 -5.486631e-16
    endloop
  endfacet
  facet normal -9.876918e-01 1.564123e-01 -1.915498e-17
    outer loop
      vertex -3.379026e+01 2.448017e+01 1.300000e+01
      vertex -3.379026e+01 2.448017e+01 -5.486631e-16
      vertex -3.449975e+01 2.000000e+01 1.121696e-30
    endloop
  endfacet
  facet normal -8.910345e-01 4.539355e-01 -5.559106e-17
    outer loop
      vertex -3.173114e+01 2.852204e+01 1.300000e+01
      vertex -3.379026e+01 2.448017e+01 -5.486631e-16
      vertex -3.379026e+01 2.448017e+01 1.300000e+01
    endloop
  endfacet
  facet normal -9.876918e-01 -1.564123e-01 1.915498e-17
    outer loop
      vertex -3.449975e+01 2.000000e+01 1.300000e+01
      vertex -3.449975e+01 2.000000e+01 1.121696e-30
      vertex -3.379026e+01 1.551983e+01 5.486631e-16
    endloop
  endfacet
  facet normal -9.876918e-01 1.564123e-01 -1.915498e-17
    outer loop
      vertex -3.379026e+01 2.448017e+01 1.300000e+01
      vertex -3.449975e+01 2.000000e+01 1.121696e-30
      vertex -3.449975e+01 2.000000e+01 1.300000e+01
    endloop
  endfacet
  facet normal -8.910345e-01 -4.539355e-01 5.559106e-17
    outer loop
      vertex -3.379026e+01 1.551983e+01 1.300000e+01
      vertex -3.379026e+01 1.551983e+01 5.486631e-16
      vertex -3.173114e+01 1.147796e+01 1.043649e-15
    endloop
  endfacet
  facet normal -9.876918e-01 -1.564123e-01 1.915498e-17
    outer loop
      vertex -3.449975e+01 2.000000e+01 1.300000e+01
      vertex -3.379026e+01 1.551983e+01 5.486631e-16
      vertex -3.379026e+01 1.551983e+01 1.300000e+01
    endloop
  endfacet
  facet normal -7.071664e-01 -7.070472e-01 8.658831e-17
    outer loop
      vertex -3.173114e+01 1.147796e+01 1.300000e+01
      vertex -3.173114e+01 1.147796e+01 1.043649e-15
      vertex -2.852367e+01 8.269955e+00 1.436516e-15
    endloop
  endfacet
  facet normal -8.910345e-01 -4.539355e-01 5.559106e-17
    outer loop
      vertex -3.379026e+01 1.551983e+01 1.300000e+01
      vertex -3.173114e+01 1.147796e+01 1.043649e-15
      vertex -3.173114e+01 1.147796e+01 1.300000e+01
    endloop
  endfacet
  facet normal -4.540607e-01 -8.909708e-01 1.091124e-16
    outer loop
      vertex -2.852367e+01 8.269955e+00 1.300000e+01
      vertex -2.852367e+01 8.269955e+00 1.436516e-15
      vertex -2.448148e+01 6.209955e+00 1.688793e-15
    endloop
  endfacet
  facet normal -7.071664e-01 -7.070472e-01 8.658831e-17
    outer loop
      vertex -3.173114e+01 1.147796e+01 1.300000e+01
      vertex -2.852367e+01 8.269955e+00 1.436516e-15
      vertex -2.852367e+01 8.269955e+00 1.300000e+01
    endloop
  endfacet
  facet normal -4.540607e-01 -8.909708e-01 1.091124e-16
    outer loop
      vertex -2.852367e+01 8.269955e+00 1.300000e+01
      vertex -2.448148e+01 6.209955e+00 1.688793e-15
      vertex -2.448148e+01 6.209955e+00 1.300000e+01
    endloop
  endfacet
  facet normal 0.000000e+00 1.224647e-16 1.000000e+00
    outer loop
      vertex -2.000000e+01 3.450000e+01 1.300000e+01
      vertex 3.530977e+00 2.202255e+01 1.300000e+01
      vertex 5.000000e+00 2.250000e+01 1.300000e+01
    endloop
  endfacet
  facet normal 0.000000e+00 1.224647e-16 1.000000e+00
    outer loop
      vertex -2.000000e+01 3.450000e+01 1.300000e+01
      vertex 5.000000e+00 2.250000e+01 1.300000e+01
      vertex 6.469023e+00 2.202255e+01 1.300000e+01
    endloop
  endfacet
  facet normal 0.000000e+00 1.224647e-16 1.000000e+00
    outer loop
      vertex -2.000000e+01 3.450000e+01 1.300000e+01
      vertex 2.622242e+00 2.077182e+01 1.300000e+01
      vertex 3.530977e+00 2.202255e+01 1.300000e+01
    endloop
  endfacet
  facet normal 0.000000e+00 1.224647e-16 1.000000e+00
    outer loop
      vertex -2.000000e+01 3.450000e+01 1.300000e+01
      vertex 2.622242e+00 1.922818e+01 1.300000e+01
      vertex 2.622242e+00 2.077182e+01 1.300000e+01
    endloop
  endfacet
  facet normal 0.000000e+00 1.224647e-16 1.000000e+00
    outer loop
      vertex 5.000000e-01 1.150000e+01 1.300000e+01
      vertex 3.530977e+00 1.797745e+01 1.300000e+01
      vertex 2.622242e+00 1.922818e+01 1.300000e+01
    endloop
  endfacet
  facet normal 0.000000e+00 1.224647e-16 1.000000e+00
    outer loop
      vertex -1.412555e+01 3.017597e+01 1.300000e+01
      vertex -1.099897e+01 2.755249e+01 1.300000e+01
      vertex 2.622242e+00 1.922818e+01 1.300000e+01
    endloop
  endfacet
  facet normal 0.000000e+00 1.224647e-16 1.000000e+00
    outer loop
      vertex 5.000000e-01 1.150000e+01 1.300000e+01
      vertex 2.622242e+00 1.922818e+01 1.300000e+01
      vertex -1.099897e+01 2.755249e+01 1.300000e+01
    endloop
  endfacet
  facet normal 0.000000e+00 1.224647e-16 1.000000e+00
    outer loop
      vertex -2.000000e+01 3.450000e+01 1.300000e+01
      vertex -1.412555e+01 3.017597e+01 1.300000e+01
      vertex 2.622242e+00 1.922818e+01 1.300000e+01
    endloop
  endfacet
  facet normal 0.000000e+00 1.224647e-16 1.000000e+00
    outer loop
      vertex 1.050000e+01 1.150000e+01 1.300000e+01
      vertex 5.000000e+00 1.750000e+01 1.300000e+01
      vertex 3.530977e+00 1.797745e+01 1.300000e+01
    endloop
  endfacet
  facet normal 0.000000e+00 1.224647e-16 1.000000e+00
    outer loop
      vertex 5.000000e-01 1.150000e+01 1.300000e+01
      vertex 1.050000e+01 1.150000e+01 1.300000e+01
      vertex 3.530977e+00 1.797745e+01 1.300000e+01
    endloop
  endfacet
  facet normal 0.000000e+00 1.224647e-16 1.000000e+00
    outer loop
      vertex 1.050000e+01 1.150000e+01 1.300000e+01
      vertex 6.469023e+00 1.797745e+01 1.300000e+01
      vertex 5.000000e+00 1.750000e+01 1.300000e+01
    endloop
  endfacet
  facet normal 0.000000e+00 1.224647e-16 1.000000e+00
    outer loop
      vertex 1.050000e+01 1.150000e+01 1.300000e+01
      vertex 7.377758e+00 1.922818e+01 1.300000e+01
      vertex 6.469023e+00 1.797745e+01 1.300000e+01
    endloop
  endfacet
  facet normal 0.000000e+00 1.224647e-16 1.000000e+00
    outer loop
      vertex 1.050000e+01 1.150000e+01 1.300000e+01
      vertex 7.377758e+00 2.077182e+01 1.300000e+01
      vertex 7.377758e+00 1.922818e+01 1.300000e+01
    endloop
  endfacet
  facet normal 0.000000e+00 1.224647e-16 1.000000e+00
    outer loop
      vertex 1.050000e+01 3.450000e+01 1.300000e+01
      vertex 6.469023e+00 2.202255e+01 1.300000e+01
      vertex 7.377758e+00 2.077182e+01 1.300000e+01
    endloop
  endfacet
  facet normal 0.000000e+00 1.224647e-16 1.000000e+00
    outer loop
      vertex 1.050000e+01 1.150000e+01 1.300000e+01
      vertex 1.050000e+01 3.450000e+01 1.300000e+01
      vertex 7.377758e+00 2.077182e+01 1.300000e+01
    endloop
  endfacet
  facet normal 0.000000e+00 1.224647e-16 1.000000e+00
    outer loop
      vertex 1.050000e+01 3.450000e+01 1.300000e+01
      vertex -2.000000e+01 3.450000e+01 1.300000e+01
      vertex 6.469023e+00 2.202255e+01 1.300000e+01
    endloop
  endfacet
  facet normal 0.000000e+00 1.224647e-16 1.000000e+00
    outer loop
      vertex 5.000000e-01 5.500000e+00 1.300000e+01
      vertex -8.958437e+00 2.401802e+01 1.300000e+01
      vertex -8.250000e+00 2.000000e+01 1.300000e+01
    endloop
  endfacet
  facet normal -9.848098e-01 -1.736366e-01 2.126435e-17
    outer loop
      vertex -8.250000e+00 2.000000e+01 2.000000e+00
      vertex -8.250000e+00 2.000000e+01 1.300000e+01
      vertex -8.958437e+00 2.401802e+01 1.300000e+01
    endloop
  endfacet
  facet normal 0.000000e+00 1.224647e-16 1.000000e+00
    outer loop
      vertex 5.000000e-01 5.500000e+00 1.300000e+01
      vertex -8.250000e+00 2.000000e+01 1.300000e+01
      vertex -8.958437e+00 1.598198e+01 1.300000e+01
    endloop
  endfacet
  facet normal -9.848098e-01 1.736366e-01 -3.507300e-06
    outer loop
      vertex -8.958409e+00 1.598191e+01 2.000000e+00
      vertex -8.958437e+00 1.598198e+01 1.300000e+01
      vertex -8.250000e+00 2.000000e+01 1.300000e+01
    endloop
  endfacet
  facet normal -9.848114e-01 1.736273e-01 -2.126321e-17
    outer loop
      vertex -8.958409e+00 1.598191e+01 2.000000e+00
      vertex -8.250000e+00 2.000000e+01 1.300000e+01
      vertex -8.250000e+00 2.000000e+01 2.000000e+00
    endloop
  endfacet
  facet normal 0.000000e+00 1.224647e-16 1.000000e+00
    outer loop
      vertex 5.000000e-01 9.997454e+00 1.300000e+01
      vertex -1.099897e+01 2.755249e+01 1.300000e+01
      vertex -8.958437e+00 2.401802e+01 1.300000e+01
    endloop
  endfacet
  facet normal -8.660353e-01 -4.999828e-01 -5.072137e-06
    outer loop
      vertex -8.958409e+00 2.401809e+01 2.000000e+00
      vertex -8.958437e+00 2.401802e+01 1.300000e+01
      vertex -1.099897e+01 2.755249e+01 1.300000e+01
    endloop
  endfacet
  facet normal 0.000000e+00 1.224647e-16 1.000000e+00
    outer loop
      vertex 5.000000e-01 5.500000e+00 1.300000e+01
      vertex 5.000000e-01 7.002546e+00 1.300000e+01
      vertex -8.958437e+00 2.401802e+01 1.300000e+01
    endloop
  endfacet
  facet normal 0.000000e+00 1.224647e-16 1.000000e+00
    outer loop
      vertex 5.000000e-01 9.997454e+00 1.300000e+01
      vertex -8.958437e+00 2.401802e+01 1.300000e+01
      vertex 5.000000e-01 7.002546e+00 1.300000e+01
    endloop
  endfacet
  facet normal -9.848114e-01 -1.736273e-01 -3.507251e-06
    outer loop
      vertex -8.958409e+00 2.401809e+01 2.000000e+00
      vertex -8.250000e+00 2.000000e+01 2.000000e+00
      vertex -8.958437e+00 2.401802e+01 1.300000e+01
    endloop
  endfacet
  facet normal -6.427818e-01 -7.660493e-01 4.317368e-06
    outer loop
      vertex -1.099851e+01 2.755204e+01 2.000000e+00
      vertex -1.099897e+01 2.755249e+01 1.300000e+01
      vertex -1.412555e+01 3.017597e+01 1.300000e+01
    endloop
  endfacet
  facet normal 0.000000e+00 1.224647e-16 1.000000e+00
    outer loop
      vertex 5.000000e-01 9.997454e+00 1.300000e+01
      vertex 5.000000e-01 1.150000e+01 1.300000e+01
      vertex -1.099897e+01 2.755249e+01 1.300000e+01
    endloop
  endfacet
  facet normal -8.660500e-01 -4.999574e-01 -1.597301e-05
    outer loop
      vertex -8.958409e+00 2.401809e+01 2.000000e+00
      vertex -1.099897e+01 2.755249e+01 1.300000e+01
      vertex -1.099851e+01 2.755204e+01 2.000000e+00
    endloop
  endfacet
  facet normal 0.000000e+00 1.224647e-16 1.000000e+00
    outer loop
      vertex -2.000000e+01 3.450000e+01 1.300000e+01
      vertex -1.796021e+01 3.157157e+01 1.300000e+01
      vertex -1.412555e+01 3.017597e+01 1.300000e+01
    endloop
  endfacet
  facet normal -3.419984e-01 -9.397005e-01 2.196316e-05
    outer loop
      vertex -1.412451e+01 3.017533e+01 2.000000e+00
      vertex -1.412555e+01 3.017597e+01 1.300000e+01
      vertex -1.796021e+01 3.157157e+01 1.300000e+01
    endloop
  endfacet
  facet normal -6.428249e-01 -7.660131e-01 -1.658271e-05
    outer loop
      vertex -1.099851e+01 2.755204e+01 2.000000e+00
      vertex -1.412555e+01 3.017597e+01 1.300000e+01
      vertex -1.412451e+01 3.017533e+01 2.000000e+00
    endloop
  endfacet
  facet normal 0.000000e+00 1.224647e-16 1.000000e+00
    outer loop
      vertex -2.000000e+01 3.450000e+01 1.300000e+01
      vertex -2.203979e+01 3.157157e+01 1.300000e+01
      vertex -1.796021e+01 3.157157e+01 1.300000e+01
    endloop
  endfacet
  facet normal -8.708540e-16 -1.000000e+00 2.864946e-05
    outer loop
      vertex -1.795943e+01 3.157125e+01 2.000000e+00
      vertex -1.796021e+01 3.157157e+01 1.300000e+01
      vertex -2.203979e+01 3.157157e+01 1.300000e+01
    endloop
  endfacet
  facet normal -3.420475e-01 -9.396827e-01 2.546190e-06
    outer loop
      vertex -1.412451e+01 3.017533e+01 2.000000e+00
      vertex -1.796021e+01 3.157157e+01 1.300000e+01
      vertex -1.795943e+01 3.157125e+01 2.000000e+00
    endloop
  endfacet
  facet normal 0.000000e+00 1.224647e-16 1.000000e+00
    outer loop
      vertex -2.448148e+01 3.379004e+01 1.300000e+01
      vertex -2.587445e+01 3.017597e+01 1.300000e+01
      vertex -2.203979e+01 3.157157e+01 1.300000e+01
    endloop
  endfacet
  facet normal 3.419984e-01 -9.397005e-01 2.550207e-06
    outer loop
      vertex -2.204057e+01 3.157125e+01 2.000000e+00
      vertex -2.203979e+01 3.157157e+01 1.300000e+01
      vertex -2.587445e+01 3.017597e+01 1.300000e+01
    endloop
  endfacet
  facet normal 0.000000e+00 1.224647e-16 1.000000e+00
    outer loop
      vertex -2.000000e+01 3.450000e+01 1.300000e+01
      vertex -2.448148e+01 3.379004e+01 1.300000e+01
      vertex -2.203979e+01 3.157157e+01 1.300000e+01
    endloop
  endfacet
  facet normal 0.000000e+00 -1.000000e+00 2.864946e-05
    outer loop
      vertex -1.795943e+01 3.157125e+01 2.000000e+00
      vertex -2.203979e+01 3.157157e+01 1.300000e+01
      vertex -2.204057e+01 3.157125e+01 2.000000e+00
    endloop
  endfacet
  facet normal 0.000000e+00 1.224647e-16 1.000000e+00
    outer loop
      vertex -2.852367e+01 3.173005e+01 1.300000e+01
      vertex -2.900103e+01 2.755249e+01 1.300000e+01
      vertex -2.587445e+01 3.017597e+01 1.300000e+01
    endloop
  endfacet
  facet normal 6.427818e-01 -7.660493e-01 -1.657653e-05
    outer loop
      vertex -2.587549e+01 3.017533e+01 2.000000e+00
      vertex -2.587445e+01 3.017597e+01 1.300000e+01
      vertex -2.900103e+01 2.755249e+01 1.300000e+01
    endloop
  endfacet
  facet normal 0.000000e+00 1.224647e-16 1.000000e+00
    outer loop
      vertex -2.448148e+01 3.379004e+01 1.300000e+01
      vertex -2.852367e+01 3.173005e+01 1.300000e+01
      vertex -2.587445e+01 3.017597e+01 1.300000e+01
    endloop
  endfacet
  facet normal 3.420475e-01 -9.396827e-01 2.195747e-05
    outer loop
      vertex -2.204057e+01 3.157125e+01 2.000000e+00
      vertex -2.587445e+01 3.017597e+01 1.300000e+01
      vertex -2.587549e+01 3.017533e+01 2.000000e+00
    endloop
  endfacet
  facet normal 0.000000e+00 1.224647e-16 1.000000e+00
    outer loop
      vertex -3.173114e+01 2.852204e+01 1.300000e+01
      vertex -3.104156e+01 2.401802e+01 1.300000e+01
      vertex -2.900103e+01 2.755249e+01 1.300000e+01
    endloop
  endfacet
  facet normal 8.660353e-01 -4.999828e-01 -1.597135e-05
    outer loop
      vertex -2.900149e+01 2.755204e+01 2.000000e+00
      vertex -2.900103e+01 2.755249e+01 1.300000e+01
      vertex -3.104156e+01 2.401802e+01 1.300000e+01
    endloop
  endfacet
  facet normal 0.000000e+00 1.224647e-16 1.000000e+00
    outer loop
      vertex -2.852367e+01 3.173005e+01 1.300000e+01
      vertex -3.173114e+01 2.852204e+01 1.300000e+01
      vertex -2.900103e+01 2.755249e+01 1.300000e+01
    endloop
  endfacet
  facet normal 6.428249e-01 -7.660131e-01 4.314070e-06
    outer loop
      vertex -2.587549e+01 3.017533e+01 2.000000e+00
      vertex -2.900103e+01 2.755249e+01 1.300000e+01
      vertex -2.900149e+01 2.755204e+01 2.000000e+00
    endloop
  endfacet
  facet normal 0.000000e+00 1.224647e-16 1.000000e+00
    outer loop
      vertex -3.173114e+01 2.852204e+01 1.300000e+01
      vertex -3.175000e+01 2.000000e+01 1.300000e+01
      vertex -3.104156e+01 2.401802e+01 1.300000e+01
    endloop
  endfacet
  facet normal 9.848098e-01 -1.736366e-01 -3.507300e-06
    outer loop
      vertex -3.104159e+01 2.401809e+01 2.000000e+00
      vertex -3.104156e+01 2.401802e+01 1.300000e+01
      vertex -3.175000e+01 2.000000e+01 1.300000e+01
    endloop
  endfacet
  facet normal 8.660500e-01 -4.999574e-01 -5.072029e-06
    outer loop
      vertex -2.900149e+01 2.755204e+01 2.000000e+00
      vertex -3.104156e+01 2.401802e+01 1.300000e+01
      vertex -3.104159e+01 2.401809e+01 2.000000e+00
    endloop
  endfacet
  facet normal 0.000000e+00 1.224647e-16 1.000000e+00
    outer loop
      vertex -3.173114e+01 1.147796e+01 1.300000e+01
      vertex -3.104156e+01 1.598198e+01 1.300000e+01
      vertex -3.175000e+01 2.000000e+01 1.300000e+01
    endloop
  endfacet
  facet normal 9.848098e-01 1.736366e-01 -2.126435e-17
    outer loop
      vertex -3.175000e+01 2.000000e+01 2.000000e+00
      vertex -3.175000e+01 2.000000e+01 1.300000e+01
      vertex -3.104156e+01 1.598198e+01 1.300000e+01
    endloop
  endfacet
  facet normal 0.000000e+00 1.224647e-16 1.000000e+00
    outer loop
      vertex -3.379026e+01 2.448017e+01 1.300000e+01
      vertex -3.173114e+01 1.147796e+01 1.300000e+01
      vertex -3.175000e+01 2.000000e+01 1.300000e+01
    endloop
  endfacet
  facet normal 0.000000e+00 1.224647e-16 1.000000e+00
    outer loop
      vertex -3.173114e+01 2.852204e+01 1.300000e+01
      vertex -3.379026e+01 2.448017e+01 1.300000e+01
      vertex -3.175000e+01 2.000000e+01 1.300000e+01
    endloop
  endfacet
  facet normal 9.848114e-01 -1.736273e-01 2.126321e-17
    outer loop
      vertex -3.104159e+01 2.401809e+01 2.000000e+00
      vertex -3.175000e+01 2.000000e+01 1.300000e+01
      vertex -3.175000e+01 2.000000e+01 2.000000e+00
    endloop
  endfacet
  facet normal 0.000000e+00 1.224647e-16 1.000000e+00
    outer loop
      vertex -2.852367e+01 8.269955e+00 1.300000e+01
      vertex -2.900103e+01 1.244751e+01 1.300000e+01
      vertex -3.104156e+01 1.598198e+01 1.300000e+01
    endloop
  endfacet
  facet normal 8.660353e-01 4.999828e-01 -5.072137e-06
    outer loop
      vertex -3.104159e+01 1.598191e+01 2.000000e+00
      vertex -3.104156e+01 1.598198e+01 1.300000e+01
      vertex -2.900103e+01 1.244751e+01 1.300000e+01
    endloop
  endfacet
  facet normal 0.000000e+00 1.224647e-16 1.000000e+00
    outer loop
      vertex -3.173114e+01 1.147796e+01 1.300000e+01
      vertex -2.852367e+01 8.269955e+00 1.300000e+01
      vertex -3.104156e+01 1.598198e+01 1.300000e+01
    endloop
  endfacet
  facet normal 9.848114e-01 1.736273e-01 -3.507251e-06
    outer loop
      vertex -3.175000e+01 2.000000e+01 2.000000e+00
      vertex -3.104156e+01 1.598198e+01 1.300000e+01
      vertex -3.104159e+01 1.598191e+01 2.000000e+00
    endloop
  endfacet
  facet normal 0.000000e+00 1.224647e-16 1.000000e+00
    outer loop
      vertex -2.852367e+01 8.269955e+00 1.300000e+01
      vertex -2.587445e+01 9.824035e+00 1.300000e+01
      vertex -2.900103e+01 1.244751e+01 1.300000e+01
    endloop
  endfacet
  facet normal 6.427818e-01 7.660493e-01 4.317368e-06
    outer loop
      vertex -2.900149e+01 1.244796e+01 2.000000e+00
      vertex -2.900103e+01 1.244751e+01 1.300000e+01
      vertex -2.587445e+01 9.824035e+00 1.300000e+01
    endloop
  endfacet
  facet normal 8.660500e-01 4.999574e-01 -1.597301e-05
    outer loop
      vertex -3.104159e+01 1.598191e+01 2.000000e+00
      vertex -2.900103e+01 1.244751e+01 1.300000e+01
      vertex -2.900149e+01 1.244796e+01 2.000000e+00
    endloop
  endfacet
  facet normal 0.000000e+00 1.224647e-16 1.000000e+00
    outer loop
      vertex -2.448148e+01 6.209955e+00 1.300000e+01
      vertex -2.203979e+01 8.428433e+00 1.300000e+01
      vertex -2.587445e+01 9.824035e+00 1.300000e+01
    endloop
  endfacet
  facet normal 3.419984e-01 9.397005e-01 2.196316e-05
    outer loop
      vertex -2.587549e+01 9.824671e+00 2.000000e+00
      vertex -2.587445e+01 9.824035e+00 1.300000e+01
      vertex -2.203979e+01 8.428433e+00 1.300000e+01
    endloop
  endfacet
  facet normal 0.000000e+00 1.224647e-16 1.000000e+00
    outer loop
      vertex -2.852367e+01 8.269955e+00 1.300000e+01
      vertex -2.448148e+01 6.209955e+00 1.300000e+01
      vertex -2.587445e+01 9.824035e+00 1.300000e+01
    endloop
  endfacet
  facet normal 6.428249e-01 7.660131e-01 -1.658271e-05
    outer loop
      vertex -2.900149e+01 1.244796e+01 2.000000e+00
      vertex -2.587445e+01 9.824035e+00 1.300000e+01
      vertex -2.587549e+01 9.824671e+00 2.000000e+00
    endloop
  endfacet
  facet normal 0.000000e+00 1.224647e-16 1.000000e+00
    outer loop
      vertex -2.000000e+01 5.500000e+00 1.300000e+01
      vertex -1.796021e+01 8.428433e+00 1.300000e+01
      vertex -2.203979e+01 8.428433e+00 1.300000e+01
    endloop
  endfacet
  facet normal 1.306281e-15 1.000000e+00 2.864946e-05
    outer loop
      vertex -2.204057e+01 8.428748e+00 2.000000e+00
      vertex -2.203979e+01 8.428433e+00 1.300000e+01
      vertex -1.796021e+01 8.428433e+00 1.300000e+01
    endloop
  endfacet
  facet normal 0.000000e+00 1.224647e-16 1.000000e+00
    outer loop
      vertex -2.448148e+01 6.209955e+00 1.300000e+01
      vertex -2.000000e+01 5.500000e+00 1.300000e+01
      vertex -2.203979e+01 8.428433e+00 1.300000e+01
    endloop
  endfacet
  facet normal 3.420475e-01 9.396827e-01 2.546190e-06
    outer loop
      vertex -2.587549e+01 9.824671e+00 2.000000e+00
      vertex -2.203979e+01 8.428433e+00 1.300000e+01
      vertex -2.204057e+01 8.428748e+00 2.000000e+00
    endloop
  endfacet
  facet normal 0.000000e+00 1.224647e-16 1.000000e+00
    outer loop
      vertex 5.000000e-01 5.500000e+00 1.300000e+01
      vertex -1.412555e+01 9.824035e+00 1.300000e+01
      vertex -1.796021e+01 8.428433e+00 1.300000e+01
    endloop
  endfacet
  facet normal -3.419984e-01 9.397005e-01 2.550207e-06
    outer loop
      vertex -1.795943e+01 8.428748e+00 2.000000e+00
      vertex -1.796021e+01 8.428433e+00 1.300000e+01
      vertex -1.412555e+01 9.824035e+00 1.300000e+01
    endloop
  endfacet
  facet normal 0.000000e+00 1.224647e-16 1.000000e+00
    outer loop
      vertex -2.000000e+01 5.500000e+00 1.300000e+01
      vertex 5.000000e-01 5.500000e+00 1.300000e+01
      vertex -1.796021e+01 8.428433e+00 1.300000e+01
    endloop
  endfacet
  facet normal 0.000000e+00 1.000000e+00 2.864946e-05
    outer loop
      vertex -2.204057e+01 8.428748e+00 2.000000e+00
      vertex -1.796021e+01 8.428433e+00 1.300000e+01
      vertex -1.795943e+01 8.428748e+00 2.000000e+00
    endloop
  endfacet
  facet normal 0.000000e+00 1.224647e-16 1.000000e+00
    outer loop
      vertex 5.000000e-01 5.500000e+00 1.300000e+01
      vertex -1.099897e+01 1.244751e+01 1.300000e+01
      vertex -1.412555e+01 9.824035e+00 1.300000e+01
    endloop
  endfacet
  facet normal -6.427818e-01 7.660493e-01 -1.657653e-05
    outer loop
      vertex -1.412451e+01 9.824671e+00 2.000000e+00
      vertex -1.412555e+01 9.824035e+00 1.300000e+01
      vertex -1.099897e+01 1.244751e+01 1.300000e+01
    endloop
  endfacet
  facet normal -3.420475e-01 9.396827e-01 2.195747e-05
    outer loop
      vertex -1.795943e+01 8.428748e+00 2.000000e+00
      vertex -1.412555e+01 9.824035e+00 1.300000e+01
      vertex -1.412451e+01 9.824671e+00 2.000000e+00
    endloop
  endfacet
  facet normal 0.000000e+00 1.224647e-16 1.000000e+00
    outer loop
      vertex 5.000000e-01 5.500000e+00 1.300000e+01
      vertex -8.958437e+00 1.598198e+01 1.300000e+01
      vertex -1.099897e+01 1.244751e+01 1.300000e+01
    endloop
  endfacet
  facet normal -8.660353e-01 4.999828e-01 -1.597135e-05
    outer loop
      vertex -1.099851e+01 1.244796e+01 2.000000e+00
      vertex -1.099897e+01 1.244751e+01 1.300000e+01
      vertex -8.958437e+00 1.598198e+01 1.300000e+01
    endloop
  endfacet
  facet normal -6.428249e-01 7.660131e-01 4.314070e-06
    outer loop
      vertex -1.412451e+01 9.824671e+00 2.000000e+00
      vertex -1.099897e+01 1.244751e+01 1.300000e+01
      vertex -1.099851e+01 1.244796e+01 2.000000e+00
    endloop
  endfacet
  facet normal -8.660500e-01 4.999574e-01 -5.072029e-06
    outer loop
      vertex -1.099851e+01 1.244796e+01 2.000000e+00
      vertex -8.958437e+00 1.598198e+01 1.300000e+01
      vertex -8.958409e+00 1.598191e+01 2.000000e+00
    endloop
  endfacet
  facet normal -1.000000e+00 -0.000000e+00 0.000000e+00
    outer loop
      vertex 5.000000e-01 7.317291e+00 1.383503e+01
      vertex 5.000000e-01 7.002546e+00 1.300000e+01
      vertex 5.000000e-01 5.500000e+00 1.300000e+01
    endloop
  endfacet
  facet normal 1.000000e+00 0.000000e+00 0.000000e+00
    outer loop
      vertex 5.000000e-01 9.713526e+00 1.203122e+01
      vertex 5.000000e-01 9.997454e+00 1.300000e+01
      vertex 5.000000e-01 7.002546e+00 1.300000e+01
    endloop
  endfacet
  facet normal -2.458099e-03 9.510280e-01 -3.090950e-01
    outer loop
      vertex 1.050000e+01 7.286469e+00 1.379405e+01
      vertex 1.050000e+01 7.000000e+00 1.291264e+01
      vertex 5.000000e-01 7.002546e+00 1.300000e+01
    endloop
  endfacet
  facet normal -1.277191e-04 9.990431e-01 -4.373661e-02
    outer loop
      vertex 5.000000e-01 7.000641e+00 1.295648e+01
      vertex 5.000000e-01 7.002546e+00 1.300000e+01
      vertex 1.050000e+01 7.000000e+00 1.291264e+01
    endloop
  endfacet
  facet normal 1.438737e-03 9.357346e-01 -3.527019e-01
    outer loop
      vertex 5.000000e-01 7.317291e+00 1.383503e+01
      vertex 1.050000e+01 7.286469e+00 1.379405e+01
      vertex 5.000000e-01 7.002546e+00 1.300000e+01
    endloop
  endfacet
  facet normal 1.000000e+00 0.000000e+00 0.000000e+00
    outer loop
      vertex 5.000000e-01 8.963091e+00 1.148598e+01
      vertex 5.000000e-01 9.713526e+00 1.203122e+01
      vertex 5.000000e-01 7.002546e+00 1.300000e+01
    endloop
  endfacet
  facet normal 1.000000e+00 0.000000e+00 0.000000e+00
    outer loop
      vertex 5.000000e-01 8.036909e+00 1.148598e+01
      vertex 5.000000e-01 8.963091e+00 1.148598e+01
      vertex 5.000000e-01 7.002546e+00 1.300000e+01
    endloop
  endfacet
  facet normal 1.000000e+00 0.000000e+00 0.000000e+00
    outer loop
      vertex 5.000000e-01 7.286474e+00 1.203122e+01
      vertex 5.000000e-01 8.036909e+00 1.148598e+01
      vertex 5.000000e-01 7.002546e+00 1.300000e+01
    endloop
  endfacet
  facet normal 1.000000e+00 0.000000e+00 0.000000e+00
    outer loop
      vertex 5.000000e-01 7.000641e+00 1.295648e+01
      vertex 5.000000e-01 7.286474e+00 1.203122e+01
      vertex 5.000000e-01 7.002546e+00 1.300000e+01
    endloop
  endfacet
  facet normal -1.000000e+00 -0.000000e+00 0.000000e+00
    outer loop
      vertex 5.000000e-01 8.053098e+00 1.434446e+01
      vertex 5.000000e-01 5.500000e+00 1.300000e+01
      vertex 5.000000e-01 5.500000e+00 1.615000e+01
    endloop
  endfacet
  facet normal -1.000000e+00 -0.000000e+00 0.000000e+00
    outer loop
      vertex 5.000000e-01 8.053098e+00 1.434446e+01
      vertex 5.000000e-01 7.317291e+00 1.383503e+01
      vertex 5.000000e-01 5.500000e+00 1.300000e+01
    endloop
  endfacet
  facet normal 0.000000e+00 1.224647e-16 1.000000e+00
    outer loop
      vertex -3.379026e+01 2.448017e+01 1.300000e+01
      vertex -3.379026e+01 1.551983e+01 1.300000e+01
      vertex -3.173114e+01 1.147796e+01 1.300000e+01
    endloop
  endfacet
  facet normal 0.000000e+00 1.224647e-16 1.000000e+00
    outer loop
      vertex -3.379026e+01 2.448017e+01 1.300000e+01
      vertex -3.449975e+01 2.000000e+01 1.300000e+01
      vertex -3.379026e+01 1.551983e+01 1.300000e+01
    endloop
  endfacet
  facet normal 1.000000e+00 0.000000e+00 0.000000e+00
    outer loop
      vertex 1.050000e+01 3.196309e+01 4.426654e+00
      vertex 1.050000e+01 3.450000e+01 1.300000e+01
      vertex 1.050000e+01 1.150000e+01 1.300000e+01
    endloop
  endfacet
  facet normal 1.000000e+00 0.000000e+00 0.000000e+00
    outer loop
      vertex 1.050000e+01 3.196309e+01 4.426654e+00
      vertex 1.050000e+01 3.271353e+01 3.881414e+00
      vertex 1.050000e+01 3.450000e+01 1.300000e+01
    endloop
  endfacet
  facet normal 0.000000e+00 1.000000e+00 -1.224647e-16
    outer loop
      vertex 1.050000e+01 1.150000e+01 1.615000e+01
      vertex 1.050000e+01 1.150000e+01 1.300000e+01
      vertex 5.000000e-01 1.150000e+01 1.300000e+01
    endloop
  endfacet
  facet normal 1.000000e+00 0.000000e+00 0.000000e+00
    outer loop
      vertex 1.050000e+01 8.963094e+00 1.433930e+01
      vertex 1.050000e+01 1.150000e+01 1.300000e+01
      vertex 1.050000e+01 1.150000e+01 1.615000e+01
    endloop
  endfacet
  facet normal 1.000000e+00 0.000000e+00 0.000000e+00
    outer loop
      vertex 1.050000e+01 3.028647e+01 2.118586e+00
      vertex 1.050000e+01 3.000000e+01 3.000000e+00
      vertex 1.050000e+01 1.150000e+01 1.300000e+01
    endloop
  endfacet
  facet normal 1.000000e+00 0.000000e+00 0.000000e+00
    outer loop
      vertex 1.050000e+01 3.028647e+01 3.881414e+00
      vertex 1.050000e+01 1.150000e+01 1.300000e+01
      vertex 1.050000e+01 3.000000e+01 3.000000e+00
    endloop
  endfacet
  facet normal 1.000000e+00 0.000000e+00 0.000000e+00
    outer loop
      vertex 1.050000e+01 3.103691e+01 1.573346e+00
      vertex 1.050000e+01 3.028647e+01 2.118586e+00
      vertex 1.050000e+01 1.150000e+01 1.300000e+01
    endloop
  endfacet
  facet normal 1.000000e+00 0.000000e+00 0.000000e+00
    outer loop
      vertex 1.050000e+01 1.000000e+01 1.291264e+01
      vertex 1.050000e+01 3.103691e+01 1.573346e+00
      vertex 1.050000e+01 1.150000e+01 1.300000e+01
    endloop
  endfacet
  facet normal 1.000000e+00 0.000000e+00 0.000000e+00
    outer loop
      vertex 1.050000e+01 3.103691e+01 4.426654e+00
      vertex 1.050000e+01 3.196309e+01 4.426654e+00
      vertex 1.050000e+01 1.150000e+01 1.300000e+01
    endloop
  endfacet
  facet normal 1.000000e+00 0.000000e+00 0.000000e+00
    outer loop
      vertex 1.050000e+01 3.028647e+01 3.881414e+00
      vertex 1.050000e+01 3.103691e+01 4.426654e+00
      vertex 1.050000e+01 1.150000e+01 1.300000e+01
    endloop
  endfacet
  facet normal 1.000000e+00 0.000000e+00 0.000000e+00
    outer loop
      vertex 1.050000e+01 9.713531e+00 1.379405e+01
      vertex 1.050000e+01 1.000000e+01 1.291264e+01
      vertex 1.050000e+01 1.150000e+01 1.300000e+01
    endloop
  endfacet
  facet normal 1.000000e+00 0.000000e+00 0.000000e+00
    outer loop
      vertex 1.050000e+01 8.963094e+00 1.433930e+01
      vertex 1.050000e+01 9.713531e+00 1.379405e+01
      vertex 1.050000e+01 1.150000e+01 1.300000e+01
    endloop
  endfacet
  facet normal -1.000000e+00 -0.000000e+00 0.000000e+00
    outer loop
      vertex 5.000000e-01 1.150000e+01 1.615000e+01
      vertex 5.000000e-01 1.150000e+01 1.300000e+01
      vertex 5.000000e-01 9.997454e+00 1.300000e+01
    endloop
  endfacet
  facet normal 0.000000e+00 1.000000e+00 -1.224647e-16
    outer loop
      vertex 5.000000e-01 1.150000e+01 1.615000e+01
      vertex 1.050000e+01 1.150000e+01 1.615000e+01
      vertex 5.000000e-01 1.150000e+01 1.300000e+01
    endloop
  endfacet
  facet normal 1.438737e-03 -9.357346e-01 -3.527019e-01
    outer loop
      vertex 5.000000e-01 9.682709e+00 1.383503e+01
      vertex 5.000000e-01 9.997454e+00 1.300000e+01
      vertex 1.050000e+01 9.713531e+00 1.379405e+01
    endloop
  endfacet
  facet normal -2.488455e-02 -9.987337e-01 -4.372306e-02
    outer loop
      vertex 5.000000e-01 9.999359e+00 1.295648e+01
      vertex 1.050000e+01 9.713531e+00 1.379405e+01
      vertex 5.000000e-01 9.997454e+00 1.300000e+01
    endloop
  endfacet
  facet normal -1.000000e+00 0.000000e+00 -0.000000e+00
    outer loop
      vertex 5.000000e-01 9.682709e+00 1.383503e+01
      vertex 5.000000e-01 1.150000e+01 1.615000e+01
      vertex 5.000000e-01 9.997454e+00 1.300000e+01
    endloop
  endfacet
  facet normal 1.000000e+00 0.000000e+00 0.000000e+00
    outer loop
      vertex 5.000000e-01 1.000000e+01 1.291264e+01
      vertex 5.000000e-01 9.999359e+00 1.295648e+01
      vertex 5.000000e-01 9.997454e+00 1.300000e+01
    endloop
  endfacet
  facet normal 1.000000e+00 0.000000e+00 0.000000e+00
    outer loop
      vertex 5.000000e-01 9.713526e+00 1.203122e+01
      vertex 5.000000e-01 1.000000e+01 1.291264e+01
      vertex 5.000000e-01 9.997454e+00 1.300000e+01
    endloop
  endfacet
  facet normal 0.000000e+00 1.224647e-16 1.000000e+00
    outer loop
      vertex -3.104159e+01 1.598191e+01 2.000000e+00
      vertex -2.000000e+01 1.550000e+01 2.000000e+00
      vertex -2.225030e+01 1.610320e+01 2.000000e+00
    endloop
  endfacet
  facet normal 0.000000e+00 1.224647e-16 1.000000e+00
    outer loop
      vertex -8.958409e+00 1.598191e+01 2.000000e+00
      vertex -1.774970e+01 1.610320e+01 2.000000e+00
      vertex -2.000000e+01 1.550000e+01 2.000000e+00
    endloop
  endfacet
  facet normal 0.000000e+00 1.224647e-16 1.000000e+00
    outer loop
      vertex -2.900149e+01 1.244796e+01 2.000000e+00
      vertex -8.958409e+00 1.598191e+01 2.000000e+00
      vertex -2.000000e+01 1.550000e+01 2.000000e+00
    endloop
  endfacet
  facet normal 0.000000e+00 1.224647e-16 1.000000e+00
    outer loop
      vertex -3.104159e+01 1.598191e+01 2.000000e+00
      vertex -2.900149e+01 1.244796e+01 2.000000e+00
      vertex -2.000000e+01 1.550000e+01 2.000000e+00
    endloop
  endfacet
  facet normal 0.000000e+00 1.224647e-16 1.000000e+00
    outer loop
      vertex -3.104159e+01 1.598191e+01 2.000000e+00
      vertex -2.225030e+01 1.610320e+01 2.000000e+00
      vertex -2.389680e+01 1.774970e+01 2.000000e+00
    endloop
  endfacet
  facet normal 0.000000e+00 1.224647e-16 1.000000e+00
    outer loop
      vertex -3.104159e+01 1.598191e+01 2.000000e+00
      vertex -2.389680e+01 1.774970e+01 2.000000e+00
      vertex -2.450000e+01 2.000000e+01 2.000000e+00
    endloop
  endfacet
  facet normal 0.000000e+00 1.224647e-16 1.000000e+00
    outer loop
      vertex -3.175000e+01 2.000000e+01 2.000000e+00
      vertex -2.450000e+01 2.000000e+01 2.000000e+00
      vertex -2.389680e+01 2.225030e+01 2.000000e+00
    endloop
  endfacet
  facet normal 0.000000e+00 1.224647e-16 1.000000e+00
    outer loop
      vertex -3.175000e+01 2.000000e+01 2.000000e+00
      vertex -3.104159e+01 1.598191e+01 2.000000e+00
      vertex -2.450000e+01 2.000000e+01 2.000000e+00
    endloop
  endfacet
  facet normal 0.000000e+00 1.224647e-16 1.000000e+00
    outer loop
      vertex -3.175000e+01 2.000000e+01 2.000000e+00
      vertex -2.389680e+01 2.225030e+01 2.000000e+00
      vertex -2.225030e+01 2.389680e+01 2.000000e+00
    endloop
  endfacet
  facet normal 0.000000e+00 1.224647e-16 1.000000e+00
    outer loop
      vertex -3.104159e+01 2.401809e+01 2.000000e+00
      vertex -2.225030e+01 2.389680e+01 2.000000e+00
      vertex -2.000000e+01 2.450000e+01 2.000000e+00
    endloop
  endfacet
  facet normal 0.000000e+00 1.224647e-16 1.000000e+00
    outer loop
      vertex -3.104159e+01 2.401809e+01 2.000000e+00
      vertex -3.175000e+01 2.000000e+01 2.000000e+00
      vertex -2.225030e+01 2.389680e+01 2.000000e+00
    endloop
  endfacet
  facet normal 0.000000e+00 1.224647e-16 1.000000e+00
    outer loop
      vertex -8.958409e+00 2.401809e+01 2.000000e+00
      vertex -2.000000e+01 2.450000e+01 2.000000e+00
      vertex -1.774970e+01 2.389680e+01 2.000000e+00
    endloop
  endfacet
  facet normal 0.000000e+00 1.224647e-16 1.000000e+00
    outer loop
      vertex -1.099851e+01 2.755204e+01 2.000000e+00
      vertex -3.104159e+01 2.401809e+01 2.000000e+00
      vertex -2.000000e+01 2.450000e+01 2.000000e+00
    endloop
  endfacet
  facet normal 0.000000e+00 1.224647e-16 1.000000e+00
    outer loop
      vertex -8.958409e+00 2.401809e+01 2.000000e+00
      vertex -1.099851e+01 2.755204e+01 2.000000e+00
      vertex -2.000000e+01 2.450000e+01 2.000000e+00
    endloop
  endfacet
  facet normal 0.000000e+00 1.224647e-16 1.000000e+00
    outer loop
      vertex -8.958409e+00 2.401809e+01 2.000000e+00
      vertex -1.774970e+01 2.389680e+01 2.000000e+00
      vertex -1.610320e+01 2.225030e+01 2.000000e+00
    endloop
  endfacet
  facet normal 0.000000e+00 1.224647e-16 1.000000e+00
    outer loop
      vertex -8.958409e+00 2.401809e+01 2.000000e+00
      vertex -1.610320e+01 2.225030e+01 2.000000e+00
      vertex -1.550000e+01 2.000000e+01 2.000000e+00
    endloop
  endfacet
  facet normal 0.000000e+00 1.224647e-16 1.000000e+00
    outer loop
      vertex -8.250000e+00 2.000000e+01 2.000000e+00
      vertex -1.550000e+01 2.000000e+01 2.000000e+00
      vertex -1.610320e+01 1.774970e+01 2.000000e+00
    endloop
  endfacet
  facet normal 0.000000e+00 1.224647e-16 1.000000e+00
    outer loop
      vertex -8.958409e+00 2.401809e+01 2.000000e+00
      vertex -1.550000e+01 2.000000e+01 2.000000e+00
      vertex -8.250000e+00 2.000000e+01 2.000000e+00
    endloop
  endfacet
  facet normal 0.000000e+00 1.224647e-16 1.000000e+00
    outer loop
      vertex -8.250000e+00 2.000000e+01 2.000000e+00
      vertex -1.610320e+01 1.774970e+01 2.000000e+00
      vertex -1.774970e+01 1.610320e+01 2.000000e+00
    endloop
  endfacet
  facet normal 0.000000e+00 1.224647e-16 1.000000e+00
    outer loop
      vertex -8.958409e+00 1.598191e+01 2.000000e+00
      vertex -8.250000e+00 2.000000e+01 2.000000e+00
      vertex -1.774970e+01 1.610320e+01 2.000000e+00
    endloop
  endfacet
  facet normal 1.000000e+00 0.000000e+00 0.000000e+00
    outer loop
      vertex 1.050000e+01 8.963094e+00 1.433930e+01
      vertex 1.050000e+01 1.150000e+01 1.615000e+01
      vertex 1.050000e+01 5.500000e+00 1.615000e+01
    endloop
  endfacet
  facet normal 0.000000e+00 1.224647e-16 1.000000e+00
    outer loop
      vertex 5.000000e-01 1.150000e+01 1.615000e+01
      vertex 1.050000e+01 5.500000e+00 1.615000e+01
      vertex 1.050000e+01 1.150000e+01 1.615000e+01
    endloop
  endfacet
  facet normal 1.000000e+00 0.000000e+00 0.000000e+00
    outer loop
      vertex 1.050000e+01 7.286469e+00 1.203123e+01
      vertex 1.050000e+01 7.000000e+00 1.291264e+01
      vertex 1.050000e+01 5.500000e+00 1.615000e+01
    endloop
  endfacet
  facet normal 1.000000e+00 0.000000e+00 0.000000e+00
    outer loop
      vertex 1.050000e+01 7.286469e+00 1.379405e+01
      vertex 1.050000e+01 5.500000e+00 1.615000e+01
      vertex 1.050000e+01 7.000000e+00 1.291264e+01
    endloop
  endfacet
  facet normal 1.000000e+00 0.000000e+00 0.000000e+00
    outer loop
      vertex 1.050000e+01 8.036906e+00 1.433930e+01
      vertex 1.050000e+01 8.963094e+00 1.433930e+01
      vertex 1.050000e+01 5.500000e+00 1.615000e+01
    endloop
  endfacet
  facet normal 1.000000e+00 0.000000e+00 0.000000e+00
    outer loop
      vertex 1.050000e+01 7.286469e+00 1.379405e+01
      vertex 1.050000e+01 8.036906e+00 1.433930e+01
      vertex 1.050000e+01 5.500000e+00 1.615000e+01
    endloop
  endfacet
  facet normal 0.000000e+00 1.224647e-16 1.000000e+00
    outer loop
      vertex 5.000000e-01 1.150000e+01 1.615000e+01
      vertex 5.000000e-01 5.500000e+00 1.615000e+01
      vertex 1.050000e+01 5.500000e+00 1.615000e+01
    endloop
  endfacet
  facet normal -1.372662e-17 9.510309e-01 3.090959e-01
    outer loop
      vertex 5.000000e-01 3.000000e+01 3.000000e+00
      vertex 1.050000e+01 3.000000e+01 3.000000e+00
      vertex 1.050000e+01 3.028647e+01 2.118586e+00
    endloop
  endfacet
  facet normal 2.331224e-07 9.510309e-01 -3.090959e-01
    outer loop
      vertex 5.000000e-01 3.028647e+01 3.881422e+00
      vertex 1.050000e+01 3.028647e+01 3.881414e+00
      vertex 1.050000e+01 3.000000e+01 3.000000e+00
    endloop
  endfacet
  facet normal 1.197901e-17 9.510301e-01 -3.090983e-01
    outer loop
      vertex 5.000000e-01 3.028647e+01 3.881422e+00
      vertex 1.050000e+01 3.000000e+01 3.000000e+00
      vertex 5.000000e-01 3.000000e+01 3.000000e+00
    endloop
  endfacet
  facet normal -3.438274e-07 5.877970e-01 8.090084e-01
    outer loop
      vertex 5.000000e-01 3.028647e+01 2.118578e+00
      vertex 1.050000e+01 3.028647e+01 2.118586e+00
      vertex 1.050000e+01 3.103691e+01 1.573346e+00
    endloop
  endfacet
  facet normal 2.331201e-07 9.510301e-01 3.090983e-01
    outer loop
      vertex 5.000000e-01 3.028647e+01 2.118578e+00
      vertex 5.000000e-01 3.000000e+01 3.000000e+00
      vertex 1.050000e+01 3.028647e+01 2.118586e+00
    endloop
  endfacet
  facet normal -1.093168e-07 1.224647e-16 1.000000e+00
    outer loop
      vertex 5.000000e-01 3.103691e+01 1.573345e+00
      vertex 1.050000e+01 3.103691e+01 1.573346e+00
      vertex 1.050000e+01 3.196309e+01 1.573346e+00
    endloop
  endfacet
  facet normal 1.000000e+00 0.000000e+00 0.000000e+00
    outer loop
      vertex 1.050000e+01 9.713531e+00 1.203123e+01
      vertex 1.050000e+01 8.963094e+00 1.148599e+01
      vertex 1.050000e+01 3.103691e+01 1.573346e+00
    endloop
  endfacet
  facet normal 1.000000e+00 0.000000e+00 0.000000e+00
    outer loop
      vertex 1.050000e+01 1.000000e+01 1.291264e+01
      vertex 1.050000e+01 9.713531e+00 1.203123e+01
      vertex 1.050000e+01 3.103691e+01 1.573346e+00
    endloop
  endfacet
  facet normal 8.132703e-08 5.877933e-01 8.090112e-01
    outer loop
      vertex 5.000000e-01 3.028647e+01 2.118578e+00
      vertex 1.050000e+01 3.103691e+01 1.573346e+00
      vertex 5.000000e-01 3.103691e+01 1.573345e+00
    endloop
  endfacet
  facet normal 8.132839e-08 -5.877970e-01 8.090084e-01
    outer loop
      vertex 5.000000e-01 3.196309e+01 1.573345e+00
      vertex 1.050000e+01 3.196309e+01 1.573346e+00
      vertex 1.050000e+01 3.271353e+01 2.118586e+00
    endloop
  endfacet
  facet normal -1.093168e-07 1.224647e-16 1.000000e+00
    outer loop
      vertex 5.000000e-01 3.103691e+01 1.573345e+00
      vertex 1.050000e+01 3.196309e+01 1.573346e+00
      vertex 5.000000e-01 3.196309e+01 1.573345e+00
    endloop
  endfacet
  facet normal 2.331224e-07 -9.510309e-01 3.090959e-01
    outer loop
      vertex 5.000000e-01 3.271353e+01 2.118578e+00
      vertex 1.050000e+01 3.271353e+01 2.118586e+00
      vertex 1.050000e+01 3.300000e+01 3.000000e+00
    endloop
  endfacet
  facet normal -3.438314e-07 -5.877933e-01 8.090112e-01
    outer loop
      vertex 5.000000e-01 3.196309e+01 1.573345e+00
      vertex 1.050000e+01 3.271353e+01 2.118586e+00
      vertex 5.000000e-01 3.271353e+01 2.118578e+00
    endloop
  endfacet
  facet normal 0.000000e+00 -9.510309e-01 -3.090959e-01
    outer loop
      vertex 5.000000e-01 3.300000e+01 3.000000e+00
      vertex 1.050000e+01 3.300000e+01 3.000000e+00
      vertex 1.050000e+01 3.271353e+01 3.881414e+00
    endloop
  endfacet
  facet normal 0.000000e+00 -9.510301e-01 3.090983e-01
    outer loop
      vertex 5.000000e-01 3.271353e+01 2.118578e+00
      vertex 1.050000e+01 3.300000e+01 3.000000e+00
      vertex 5.000000e-01 3.300000e+01 3.000000e+00
    endloop
  endfacet
  facet normal -3.438274e-07 -5.877970e-01 -8.090084e-01
    outer loop
      vertex 5.000000e-01 3.271353e+01 3.881422e+00
      vertex 1.050000e+01 3.271353e+01 3.881414e+00
      vertex 1.050000e+01 3.196309e+01 4.426654e+00
    endloop
  endfacet
  facet normal 2.331201e-07 -9.510301e-01 -3.090983e-01
    outer loop
      vertex 5.000000e-01 3.300000e+01 3.000000e+00
      vertex 1.050000e+01 3.271353e+01 3.881414e+00
      vertex 5.000000e-01 3.271353e+01 3.881422e+00
    endloop
  endfacet
  facet normal -1.093168e-07 -1.224647e-16 -1.000000e+00
    outer loop
      vertex 5.000000e-01 3.196309e+01 4.426655e+00
      vertex 1.050000e+01 3.196309e+01 4.426654e+00
      vertex 1.050000e+01 3.103691e+01 4.426654e+00
    endloop
  endfacet
  facet normal 8.132703e-08 -5.877933e-01 -8.090112e-01
    outer loop
      vertex 5.000000e-01 3.271353e+01 3.881422e+00
      vertex 1.050000e+01 3.196309e+01 4.426654e+00
      vertex 5.000000e-01 3.196309e+01 4.426655e+00
    endloop
  endfacet
  facet normal 8.132839e-08 5.877970e-01 -8.090084e-01
    outer loop
      vertex 5.000000e-01 3.103691e+01 4.426655e+00
      vertex 1.050000e+01 3.103691e+01 4.426654e+00
      vertex 1.050000e+01 3.028647e+01 3.881414e+00
    endloop
  endfacet
  facet normal -1.093168e-07 -1.081432e-15 -1.000000e+00
    outer loop
      vertex 5.000000e-01 3.196309e+01 4.426655e+00
      vertex 1.050000e+01 3.103691e+01 4.426654e+00
      vertex 5.000000e-01 3.103691e+01 4.426655e+00
    endloop
  endfacet
  facet normal -3.438314e-07 5.877933e-01 -8.090112e-01
    outer loop
      vertex 5.000000e-01 3.103691e+01 4.426655e+00
      vertex 1.050000e+01 3.028647e+01 3.881414e+00
      vertex 5.000000e-01 3.028647e+01 3.881422e+00
    endloop
  endfacet
  facet normal 0.000000e+00 9.510309e-01 3.090959e-01
    outer loop
      vertex 5.000000e-01 7.000000e+00 1.291264e+01
      vertex 1.050000e+01 7.000000e+00 1.291264e+01
      vertex 1.050000e+01 7.286469e+00 1.203123e+01
    endloop
  endfacet
  facet normal 0.000000e+00 9.998932e-01 -1.461376e-02
    outer loop
      vertex 5.000000e-01 7.000641e+00 1.295648e+01
      vertex 1.050000e+01 7.000000e+00 1.291264e+01
      vertex 5.000000e-01 7.000000e+00 1.291264e+01
    endloop
  endfacet
  facet normal -3.438274e-07 5.877970e-01 8.090084e-01
    outer loop
      vertex 5.000000e-01 7.286474e+00 1.203122e+01
      vertex 1.050000e+01 7.286469e+00 1.203123e+01
      vertex 1.050000e+01 8.036906e+00 1.148599e+01
    endloop
  endfacet
  facet normal 2.331201e-07 9.510301e-01 3.090983e-01
    outer loop
      vertex 5.000000e-01 7.000000e+00 1.291264e+01
      vertex 1.050000e+01 7.286469e+00 1.203123e+01
      vertex 5.000000e-01 7.286474e+00 1.203122e+01
    endloop
  endfacet
  facet normal -1.093168e-07 1.224647e-16 1.000000e+00
    outer loop
      vertex 5.000000e-01 8.036909e+00 1.148598e+01
      vertex 1.050000e+01 8.036906e+00 1.148599e+01
      vertex 1.050000e+01 8.963094e+00 1.148599e+01
    endloop
  endfacet
  facet normal 8.132703e-08 5.877933e-01 8.090112e-01
    outer loop
      vertex 5.000000e-01 7.286474e+00 1.203122e+01
      vertex 1.050000e+01 8.036906e+00 1.148599e+01
      vertex 5.000000e-01 8.036909e+00 1.148598e+01
    endloop
  endfacet
  facet normal 8.132839e-08 -5.877970e-01 8.090084e-01
    outer loop
      vertex 5.000000e-01 8.963091e+00 1.148598e+01
      vertex 1.050000e+01 8.963094e+00 1.148599e+01
      vertex 1.050000e+01 9.713531e+00 1.203123e+01
    endloop
  endfacet
  facet normal -1.093168e-07 3.958335e-15 1.000000e+00
    outer loop
      vertex 5.000000e-01 8.036909e+00 1.148598e+01
      vertex 1.050000e+01 8.963094e+00 1.148599e+01
      vertex 5.000000e-01 8.963091e+00 1.148598e+01
    endloop
  endfacet
  facet normal 2.331224e-07 -9.510309e-01 3.090959e-01
    outer loop
      vertex 5.000000e-01 9.713526e+00 1.203122e+01
      vertex 1.050000e+01 9.713531e+00 1.203123e+01
      vertex 1.050000e+01 1.000000e+01 1.291264e+01
    endloop
  endfacet
  facet normal -3.438314e-07 -5.877933e-01 8.090112e-01
    outer loop
      vertex 5.000000e-01 8.963091e+00 1.148598e+01
      vertex 1.050000e+01 9.713531e+00 1.203123e+01
      vertex 5.000000e-01 9.713526e+00 1.203122e+01
    endloop
  endfacet
  facet normal 0.000000e+00 -9.510309e-01 -3.090959e-01
    outer loop
      vertex 5.000000e-01 1.000000e+01 1.291264e+01
      vertex 1.050000e+01 1.000000e+01 1.291264e+01
      vertex 1.050000e+01 9.713531e+00 1.379405e+01
    endloop
  endfacet
  facet normal 0.000000e+00 -9.510301e-01 3.090983e-01
    outer loop
      vertex 5.000000e-01 9.713526e+00 1.203122e+01
      vertex 1.050000e+01 1.000000e+01 1.291264e+01
      vertex 5.000000e-01 1.000000e+01 1.291264e+01
    endloop
  endfacet
  facet normal -1.503528e-03 -5.877963e-01 -8.090075e-01
    outer loop
      vertex 5.000000e-01 9.682709e+00 1.383503e+01
      vertex 1.050000e+01 9.713531e+00 1.379405e+01
      vertex 1.050000e+01 8.963094e+00 1.433930e+01
    endloop
  endfacet
  facet normal -2.734559e-02 -9.995193e-01 -1.460829e-02
    outer loop
      vertex 5.000000e-01 1.000000e+01 1.291264e+01
      vertex 1.050000e+01 9.713531e+00 1.379405e+01
      vertex 5.000000e-01 9.999359e+00 1.295648e+01
    endloop
  endfacet
  facet normal -5.164669e-04 1.795458e-15 -9.999999e-01
    outer loop
      vertex 5.000000e-01 8.946902e+00 1.434446e+01
      vertex 1.050000e+01 8.963094e+00 1.433930e+01
      vertex 1.050000e+01 8.036906e+00 1.433930e+01
    endloop
  endfacet
  facet normal 4.970396e-04 -5.692266e-01 -8.221805e-01
    outer loop
      vertex 5.000000e-01 9.682709e+00 1.383503e+01
      vertex 1.050000e+01 8.963094e+00 1.433930e+01
      vertex 5.000000e-01 8.946902e+00 1.434446e+01
    endloop
  endfacet
  facet normal -1.503528e-03 5.877963e-01 -8.090075e-01
    outer loop
      vertex 5.000000e-01 7.317291e+00 1.383503e+01
      vertex 1.050000e+01 8.036906e+00 1.433930e+01
      vertex 1.050000e+01 7.286469e+00 1.379405e+01
    endloop
  endfacet
  facet normal 4.970396e-04 5.692266e-01 -8.221805e-01
    outer loop
      vertex 5.000000e-01 8.053098e+00 1.434446e+01
      vertex 1.050000e+01 8.036906e+00 1.433930e+01
      vertex 5.000000e-01 7.317291e+00 1.383503e+01
    endloop
  endfacet
  facet normal -5.164669e-04 -1.224647e-16 -9.999999e-01
    outer loop
      vertex 5.000000e-01 8.946902e+00 1.434446e+01
      vertex 1.050000e+01 8.036906e+00 1.433930e+01
      vertex 5.000000e-01 8.053098e+00 1.434446e+01
    endloop
  endfacet
  facet normal -1.000000e+00 0.000000e+00 0.000000e+00
    outer loop
      vertex 5.000000e-01 8.053098e+00 1.434446e+01
      vertex 5.000000e-01 5.500000e+00 1.615000e+01
      vertex 5.000000e-01 1.150000e+01 1.615000e+01
    endloop
  endfacet
  facet normal 0.000000e+00 1.224647e-16 1.000000e+00
    outer loop
      vertex -2.900149e+01 1.244796e+01 2.000000e+00
      vertex -1.099851e+01 1.244796e+01 2.000000e+00
      vertex -8.958409e+00 1.598191e+01 2.000000e+00
    endloop
  endfacet
  facet normal 0.000000e+00 1.224647e-16 1.000000e+00
    outer loop
      vertex -2.587549e+01 9.824671e+00 2.000000e+00
      vertex -1.412451e+01 9.824671e+00 2.000000e+00
      vertex -1.099851e+01 1.244796e+01 2.000000e+00
    endloop
  endfacet
  facet normal 0.000000e+00 1.224647e-16 1.000000e+00
    outer loop
      vertex -2.900149e+01 1.244796e+01 2.000000e+00
      vertex -2.587549e+01 9.824671e+00 2.000000e+00
      vertex -1.099851e+01 1.244796e+01 2.000000e+00
    endloop
  endfacet
  facet normal 0.000000e+00 1.224647e-16 1.000000e+00
    outer loop
      vertex -2.204057e+01 8.428748e+00 2.000000e+00
      vertex -1.795943e+01 8.428748e+00 2.000000e+00
      vertex -1.412451e+01 9.824671e+00 2.000000e+00
    endloop
  endfacet
  facet normal 0.000000e+00 1.224647e-16 1.000000e+00
    outer loop
      vertex -2.587549e+01 9.824671e+00 2.000000e+00
      vertex -2.204057e+01 8.428748e+00 2.000000e+00
      vertex -1.412451e+01 9.824671e+00 2.000000e+00
    endloop
  endfacet
  facet normal 0.000000e+00 1.224647e-16 1.000000e+00
    outer loop
      vertex -1.099851e+01 2.755204e+01 2.000000e+00
      vertex -2.900149e+01 2.755204e+01 2.000000e+00
      vertex -3.104159e+01 2.401809e+01 2.000000e+00
    endloop
  endfacet
  facet normal 0.000000e+00 1.224647e-16 1.000000e+00
    outer loop
      vertex -1.412451e+01 3.017533e+01 2.000000e+00
      vertex -2.587549e+01 3.017533e+01 2.000000e+00
      vertex -2.900149e+01 2.755204e+01 2.000000e+00
    endloop
  endfacet
  facet normal 0.000000e+00 1.224647e-16 1.000000e+00
    outer loop
      vertex -1.099851e+01 2.755204e+01 2.000000e+00
      vertex -1.412451e+01 3.017533e+01 2.000000e+00
      vertex -2.900149e+01 2.755204e+01 2.000000e+00
    endloop
  endfacet
  facet normal 0.000000e+00 1.224647e-16 1.000000e+00
    outer loop
      vertex -1.795943e+01 3.157125e+01 2.000000e+00
      vertex -2.204057e+01 3.157125e+01 2.000000e+00
      vertex -2.587549e+01 3.017533e+01 2.000000e+00
    endloop
  endfacet
  facet normal 0.000000e+00 1.224647e-16 1.000000e+00
    outer loop
      vertex -1.412451e+01 3.017533e+01 2.000000e+00
      vertex -1.795943e+01 3.157125e+01 2.000000e+00
      vertex -2.587549e+01 3.017533e+01 2.000000e+00
    endloop
  endfacet
  facet normal -1.000000e+00 0.000000e+00 0.000000e+00
    outer loop
      vertex 5.000000e-01 8.946902e+00 1.434446e+01
      vertex 5.000000e-01 8.053098e+00 1.434446e+01
      vertex 5.000000e-01 1.150000e+01 1.615000e+01
    endloop
  endfacet
  facet normal -1.000000e+00 0.000000e+00 0.000000e+00
    outer loop
      vertex 5.000000e-01 9.682709e+00 1.383503e+01
      vertex 5.000000e-01 8.946902e+00 1.434446e+01
      vertex 5.000000e-01 1.150000e+01 1.615000e+01
    endloop
  endfacet
  facet normal 1.000000e+00 0.000000e+00 0.000000e+00
    outer loop
      vertex 5.000000e-01 3.028647e+01 2.118578e+00
      vertex 5.000000e-01 3.028647e+01 3.881422e+00
      vertex 5.000000e-01 3.000000e+01 3.000000e+00
    endloop
  endfacet
  facet normal 1.000000e+00 0.000000e+00 0.000000e+00
    outer loop
      vertex 5.000000e-01 3.103691e+01 1.573345e+00
      vertex 5.000000e-01 3.103691e+01 4.426655e+00
      vertex 5.000000e-01 3.028647e+01 3.881422e+00
    endloop
  endfacet
  facet normal 1.000000e+00 0.000000e+00 0.000000e+00
    outer loop
      vertex 5.000000e-01 3.028647e+01 2.118578e+00
      vertex 5.000000e-01 3.103691e+01 1.573345e+00
      vertex 5.000000e-01 3.028647e+01 3.881422e+00
    endloop
  endfacet
  facet normal 1.000000e+00 0.000000e+00 0.000000e+00
    outer loop
      vertex 5.000000e-01 3.196309e+01 1.573345e+00
      vertex 5.000000e-01 3.196309e+01 4.426655e+00
      vertex 5.000000e-01 3.103691e+01 4.426655e+00
    endloop
  endfacet
  facet normal 1.000000e+00 0.000000e+00 0.000000e+00
    outer loop
      vertex 5.000000e-01 3.103691e+01 1.573345e+00
      vertex 5.000000e-01 3.196309e+01 1.573345e+00
      vertex 5.000000e-01 3.103691e+01 4.426655e+00
    endloop
  endfacet
  facet normal 1.000000e+00 0.000000e+00 0.000000e+00
    outer loop
      vertex 5.000000e-01 3.271353e+01 2.118578e+00
      vertex 5.000000e-01 3.271353e+01 3.881422e+00
      vertex 5.000000e-01 3.196309e+01 4.426655e+00
    endloop
  endfacet
  facet normal 1.000000e+00 0.000000e+00 0.000000e+00
    outer loop
      vertex 5.000000e-01 3.196309e+01 1.573345e+00
      vertex 5.000000e-01 3.271353e+01 2.118578e+00
      vertex 5.000000e-01 3.196309e+01 4.426655e+00
    endloop
  endfacet
  facet normal 1.000000e+00 0.000000e+00 0.000000e+00
    outer loop
      vertex 5.000000e-01 3.271353e+01 2.118578e+00
      vertex 5.000000e-01 3.300000e+01 3.000000e+00
      vertex 5.000000e-01 3.271353e+01 3.881422e+00
    endloop
  endfacet
  facet normal 1.000000e+00 0.000000e+00 0.000000e+00
    outer loop
      vertex 5.000000e-01 7.000641e+00 1.295648e+01
      vertex 5.000000e-01 7.000000e+00 1.291264e+01
      vertex 5.000000e-01 7.286474e+00 1.203122e+01
    endloop
  endfacet
endsolid Default
